<svg xmlns="http://www.w3.org/2000/svg" xmlns:xlink="http://www.w3.org/1999/xlink" fill="none" version="1.1" width="56.2392578125" height="56.2392578125" viewBox="0 0 56.2392578125 56.2392578125"><g style="mix-blend-mode:passthrough"><g><path d="M55.3536,44.2386C55.3536,44.2386,0.885658,44.2386,0.885658,44.2386C0.398546,44.2386,0,43.8401,0,43.353C0,43.353,0,0.885658,0,0.885658C0,0.398546,0.398546,0,0.885658,0C0.885658,0,55.3536,0,55.3536,0C55.8408,0,56.2393,0.398546,56.2393,0.885658C56.2393,0.885658,56.2393,43.353,56.2393,43.353C56.2393,43.8401,55.8408,44.2386,55.3536,44.2386C55.3536,44.2386,55.3536,44.2386,55.3536,44.2386ZM1.77132,42.4673C1.77132,42.4673,54.468,42.4673,54.468,42.4673C54.468,42.4673,54.468,1.77132,54.468,1.77132C54.468,1.77132,1.77132,1.77132,1.77132,1.77132C1.77132,1.77132,1.77132,42.4673,1.77132,42.4673C1.77132,42.4673,1.77132,42.4673,1.77132,42.4673Z" fill="#274697" fill-opacity="1"/></g><g><path d="M37.69801235351562,51.63391515625C37.69801235351562,51.63391515625,18.302063353515624,51.63391515625,18.302063353515624,51.63391515625C17.814941353515625,51.63391515625,17.416412353515625,51.235295156250004,17.416412353515625,50.74822515625C17.416412353515625,50.74822515625,17.416412353515625,43.35296615625,17.416412353515625,43.35296615625C17.416412353515625,42.86590615625,17.814941353515625,42.46728515625,18.302063353515624,42.46728515625C18.302063353515624,42.46728515625,37.74231235351563,42.46728515625,37.74231235351563,42.46728515625C38.22941235351563,42.46728515625,38.627912353515626,42.86590615625,38.627912353515626,43.35296615625C38.627912353515626,43.35296615625,38.627912353515626,50.74822515625,38.627912353515626,50.74822515625C38.58371235351562,51.235295156250004,38.18511235351562,51.63391515625,37.69801235351562,51.63391515625C37.69801235351562,51.63391515625,37.69801235351562,51.63391515625,37.69801235351562,51.63391515625ZM19.187742353515624,49.86254515625C19.187742353515624,49.86254515625,36.85661235351563,49.86254515625,36.85661235351563,49.86254515625C36.85661235351563,49.86254515625,36.85661235351563,44.23870515625,36.85661235351563,44.23870515625C36.85661235351563,44.23870515625,19.187712353515625,44.23870515625,19.187712353515625,44.23870515625C19.187712353515625,44.23870515625,19.187712353515625,49.86254515625,19.187712353515625,49.86254515625C19.187712353515625,49.86254515625,19.187742353515624,49.86254515625,19.187742353515624,49.86254515625Z" fill="#274697" fill-opacity="1"/></g><g><path d="M44.16331083984375,56.239268828125C44.16331083984375,56.239268828125,11.83676183984375,56.239268828125,11.83676183984375,56.239268828125C11.34965483984375,56.239268828125,10.95111083984375,55.840728828125,10.95111083984375,55.353618828125C10.95111083984375,55.353618828125,10.95111083984375,50.748199828125,10.95111083984375,50.748199828125C10.95111083984375,50.261077828125,11.34965483984375,49.86254882812503,11.83676183984375,49.86254882812503C11.83676183984375,49.86254882812503,44.16331083984375,49.86254882812503,44.16331083984375,49.86254882812503C44.65041083984375,49.86254882812503,45.04891083984375,50.261077828125,45.04891083984375,50.748199828125C45.04891083984375,50.748199828125,45.04891083984375,55.353618828125,45.04891083984375,55.353618828125C45.04891083984375,55.840728828125,44.65041083984375,56.239268828125,44.16331083984375,56.239268828125C44.16331083984375,56.239268828125,44.16331083984375,56.239268828125,44.16331083984375,56.239268828125ZM12.72243083984375,54.467958828125C12.72243083984375,54.467958828125,43.27761083984375,54.467958828125,43.27761083984375,54.467958828125C43.27761083984375,54.467958828125,43.27761083984375,51.633868828125,43.27761083984375,51.633868828125C43.27761083984375,51.633868828125,12.72243083984375,51.633868828125,12.72243083984375,51.633868828125C12.72243083984375,51.633868828125,12.72243083984375,54.467958828125,12.72243083984375,54.467958828125C12.72243083984375,54.467958828125,12.72243083984375,54.467958828125,12.72243083984375,54.467958828125Z" fill="#274697" fill-opacity="1"/></g><g style="mix-blend-mode:passthrough"><g><path d="M48.761069482421874,35.89648474121094C48.761069482421874,35.89648474121094,7.668148482421875,35.89648474121094,7.668148482421875,35.89648474121094C7.300649482421875,35.89648474121094,6.999969482421875,35.59588474121094,6.999969482421875,35.22828474121094C6.999969482421875,35.22828474121094,6.999969482421875,8.668136741210937,6.999969482421875,8.668136741210937C6.999969482421875,8.300674741210937,7.300649482421875,7.999984741211051,7.668148482421875,7.999984741211051C7.668148482421875,7.999984741211051,32.418169482421874,7.999984741211051,32.418169482421874,7.999984741211051C32.78566948242187,7.999984741211051,33.08636948242187,8.300674741210937,33.08636948242187,8.668136741210937C33.08636948242187,9.035664741210937,32.78566948242187,9.336344741210937,32.418169482421874,9.336344741210937C32.418169482421874,9.336344741210937,8.336329482421874,9.336344741210937,8.336329482421874,9.336344741210937C8.336329482421874,9.336344741210937,8.336329482421874,34.56018474121093,8.336329482421874,34.56018474121093C8.336329482421874,34.56018474121093,48.09296948242188,34.56018474121093,48.09296948242188,34.56018474121093C48.09296948242188,34.56018474121093,48.09296948242188,9.336344741210937,48.09296948242188,9.336344741210937C48.09296948242188,9.336344741210937,31.555569482421873,9.336344741210937,31.555569482421873,9.336344741210937C31.188069482421874,9.336344741210937,30.887369482421875,9.035664741210937,30.887369482421875,8.668136741210937C30.887369482421875,8.300674741210937,31.188069482421874,7.999984741211051,31.555569482421873,7.999984741211051C31.555569482421873,7.999984741211051,48.761069482421874,7.999984741211051,48.761069482421874,7.999984741211051C49.128569482421874,7.999984741211051,49.42926948242187,8.300674741210937,49.42926948242187,8.668136741210937C49.42926948242187,8.668136741210937,49.42926948242187,35.22828474121094,49.42926948242187,35.22828474121094C49.42926948242187,35.59588474121094,49.128569482421874,35.89648474121094,48.761069482421874,35.89648474121094C48.761069482421874,35.89648474121094,48.761069482421874,35.89648474121094,48.761069482421874,35.89648474121094Z" fill="#274697" fill-opacity="1"/></g><g><path d="M45.14619237060547,15.104810517578125C45.14619237060547,15.104810517578125,29.443992370605468,15.104810517578125,29.443992370605468,15.104810517578125C29.24349237060547,15.104810517578125,29.10989237060547,14.971160517578125,29.10989237060547,14.770710517578125C29.10989237060547,14.570270517578125,29.24349237060547,14.436610517578124,29.443992370605468,14.436610517578124C29.443992370605468,14.436610517578124,45.14619237060547,14.436610517578124,45.14619237060547,14.436610517578124C45.34659237060547,14.436610517578124,45.48029237060547,14.570270517578125,45.48029237060547,14.770710517578125C45.48029237060547,14.971160517578125,45.34659237060547,15.104810517578125,45.14619237060547,15.104810517578125C45.14619237060547,15.104810517578125,45.14619237060547,15.104810517578125,45.14619237060547,15.104810517578125ZM45.14619237060547,22.989330517578125C45.14619237060547,22.989330517578125,29.443992370605468,22.989330517578125,29.443992370605468,22.989330517578125C29.24349237060547,22.989330517578125,29.10989237060547,22.855700517578125,29.10989237060547,22.655240517578125C29.10989237060547,22.454790517578125,29.24349237060547,22.321150517578126,29.443992370605468,22.321150517578126C29.443992370605468,22.321150517578126,45.14619237060547,22.321150517578126,45.14619237060547,22.321150517578126C45.34659237060547,22.321150517578126,45.48029237060547,22.454790517578125,45.48029237060547,22.655240517578125C45.48029237060547,22.855700517578125,45.34659237060547,22.989330517578125,45.14619237060547,22.989330517578125C45.14619237060547,22.989330517578125,45.14619237060547,22.989330517578125,45.14619237060547,22.989330517578125ZM45.14619237060547,30.907230517578125C45.14619237060547,30.907230517578125,29.443992370605468,30.907230517578125,29.443992370605468,30.907230517578125C29.24349237060547,30.907230517578125,29.10989237060547,30.773630517578123,29.10989237060547,30.573230517578125C29.10989237060547,30.372730517578123,29.24349237060547,30.239130517578126,29.443992370605468,30.239130517578126C29.443992370605468,30.239130517578126,45.14619237060547,30.239130517578126,45.14619237060547,30.239130517578126C45.34659237060547,30.239130517578126,45.48029237060547,30.372730517578123,45.48029237060547,30.573230517578125C45.48029237060547,30.773630517578123,45.34659237060547,30.907230517578125,45.14619237060547,30.907230517578125C45.14619237060547,30.907230517578125,45.14619237060547,30.907230517578125,45.14619237060547,30.907230517578125ZM17.951312370605468,21.018200517578123C15.74632237060547,21.018200517578123,13.942242370605468,19.214110517578124,13.942242370605468,17.009120517578125C13.942242370605468,14.804120517578125,15.74632237060547,13.000030517578125,17.951312370605468,13.000030517578125C20.15629237060547,13.000030517578125,21.96039237060547,14.804120517578125,21.96039237060547,17.009120517578125C21.96039237060547,19.214110517578124,20.15629237060547,21.018200517578123,17.951312370605468,21.018200517578123C17.951312370605468,21.018200517578123,17.951312370605468,21.018200517578123,17.951312370605468,21.018200517578123ZM17.951312370605468,13.668212517578125C16.11382237060547,13.668212517578125,14.61043237060547,15.171620517578125,14.61043237060547,17.009120517578125C14.61043237060547,18.846620517578124,16.11382237060547,20.350020517578123,17.951312370605468,20.350020517578123C19.78881237060547,20.350020517578123,21.29219237060547,18.846620517578124,21.29219237060547,17.009120517578125C21.29219237060547,15.171620517578125,19.78881237060547,13.668212517578125,17.951312370605468,13.668212517578125C17.951312370605468,13.668212517578125,17.951312370605468,13.668212517578125,17.951312370605468,13.668212517578125ZM25.56859237060547,30.673430517578126C25.56859237060547,30.673430517578126,10.33408337060547,30.673430517578126,10.33408337060547,30.673430517578126C10.133628370605468,30.673430517578126,9.999992370605469,30.539730517578125,9.999992370605469,30.339330517578126C9.999992370605469,25.962730517578123,13.574742370605469,22.387970517578125,17.951312370605468,22.387970517578125C22.32789237060547,22.387970517578125,25.90259237060547,25.962730517578123,25.90259237060547,30.339330517578126C25.90259237060547,30.539730517578125,25.768992370605467,30.673430517578126,25.56859237060547,30.673430517578126C25.56859237060547,30.673430517578126,25.56859237060547,30.673430517578126,25.56859237060547,30.673430517578126ZM10.668167370605468,30.005230517578124C10.668167370605468,30.005230517578124,25.23449237060547,30.005230517578124,25.23449237060547,30.005230517578124C25.067392370605468,26.163230517578125,21.860192370605468,23.056130517578126,17.951312370605468,23.056130517578126C14.04247237060547,23.056130517578126,10.835212370605468,26.163230517578125,10.668167370605468,30.005230517578124C10.668167370605468,30.005230517578124,10.668167370605468,30.005230517578124,10.668167370605468,30.005230517578124Z" fill="#274697" fill-opacity="1"/></g></g></g></svg>