<svg xmlns="http://www.w3.org/2000/svg" xmlns:xlink="http://www.w3.org/1999/xlink" fill="none" version="1.1" width="69.78173828125" height="58.4862060546875" viewBox="0 0 69.78173828125 58.4862060546875"><g style="mix-blend-mode:passthrough"><g><path d="M66.0622,58.23621744628906C66.0622,58.23621744628906,3.7195,58.23621744628906,3.7195,58.23621744628906C1.82211,58.23621744628906,0.2500000000000142,56.66395744628906,0.2500000000000142,54.76661744628906C0.2500000000000142,54.76661744628906,0.2500000000000142,53.41127044628906,0.2500000000000142,53.41127044628906C0.2500000000000142,53.031875446289064,0.521057,52.76075744628906,0.900528,52.76075744628906C0.900528,52.76075744628906,68.8811,52.76075744628906,68.8811,52.76075744628906C69.2606,52.76075744628906,69.5317,53.031875446289064,69.5317,53.41127044628906C69.5317,53.41127044628906,69.5317,54.76661744628906,69.5317,54.76661744628906C69.5317,56.71815744628906,68.0138,58.23621744628906,66.0622,58.23621744628906C66.0622,58.23621744628906,66.0622,58.23621744628906,66.0622,58.23621744628906ZM1.60527,54.06178744628906C1.60527,54.06178744628906,1.60527,54.76661744628906,1.60527,54.76661744628906C1.60527,55.95924744628906,2.58107,56.935077446289064,3.77371,56.935077446289064C3.77371,56.935077446289064,66.1164,56.935077446289064,66.1164,56.935077446289064C67.309,56.935077446289064,68.2848,55.95924744628906,68.2848,54.76661744628906C68.2848,54.76661744628906,68.2848,54.06178744628906,68.2848,54.06178744628906C68.2848,54.06178744628906,1.60527,54.06178744628906,1.60527,54.06178744628906C1.60527,54.06178744628906,1.60527,54.06178744628906,1.60527,54.06178744628906Z" fill="#274697" fill-opacity="1"/></g><g><path d="M66.0622,58.48621744628906C66.0622,58.48621744628906,3.7195,58.48621744628906,3.7195,58.48621744628906C2.73507,58.48621744628906,1.80352,58.096817446289066,1.09645,57.38966744628906C0.389389,56.68256744628906,0,55.75105744628906,0,54.76661744628906C0,54.76661744628906,0,53.41127044628906,0,53.41127044628906C0,52.897903446289064,0.387138,52.51075744628906,0.900528,52.51075744628906C0.900528,52.51075744628906,68.8811,52.51075744628906,68.8811,52.51075744628906C69.3945,52.51075744628906,69.7817,52.897903446289064,69.7817,53.41127044628906C69.7817,53.41127044628906,69.7817,54.76661744628906,69.7817,54.76661744628906C69.7817,56.852367446289065,68.1479,58.48621744628906,66.0622,58.48621744628906C66.0622,58.48621744628906,66.0622,58.48621744628906,66.0622,58.48621744628906ZM0.900528,53.01075744628906C0.660957,53.01075744628906,0.5,53.17170744628906,0.5,53.41127044628906C0.5,53.41127044628906,0.5,54.76661744628906,0.5,54.76661744628906C0.5,55.61750744628906,0.837387,56.42347744628906,1.45001,57.036147446289064C2.06264,57.648817446289065,2.86863,57.98621744628906,3.7195,57.98621744628906C3.7195,57.98621744628906,66.0622,57.98621744628906,66.0622,57.98621744628906C67.8675,57.98621744628906,69.2817,56.57197744628906,69.2817,54.76661744628906C69.2817,54.76661744628906,69.2817,53.41127044628906,69.2817,53.41127044628906C69.2817,53.17170744628906,69.1207,53.01075744628906,68.8811,53.01075744628906C68.8811,53.01075744628906,0.900528,53.01075744628906,0.900528,53.01075744628906C0.900528,53.01075744628906,0.900528,53.01075744628906,0.900528,53.01075744628906ZM66.1164,57.185077446289064C66.1164,57.185077446289064,3.77371,57.185077446289064,3.77371,57.185077446289064C2.44018,57.185077446289064,1.35527,56.10017744628906,1.35527,54.76661744628906C1.35527,54.76661744628906,1.35527,53.81178744628906,1.35527,53.81178744628906C1.35527,53.81178744628906,68.5348,53.81178744628906,68.5348,53.81178744628906C68.5348,53.81178744628906,68.5348,54.76661744628906,68.5348,54.76661744628906C68.5348,56.10017744628906,67.4499,57.185077446289064,66.1164,57.185077446289064C66.1164,57.185077446289064,66.1164,57.185077446289064,66.1164,57.185077446289064ZM1.85527,54.31178744628906C1.85527,54.31178744628906,1.85527,54.76661744628906,1.85527,54.76661744628906C1.85527,55.824477446289066,2.71588,56.685077446289064,3.77371,56.685077446289064C3.77371,56.685077446289064,66.1164,56.685077446289064,66.1164,56.685077446289064C67.1742,56.685077446289064,68.0348,55.824477446289066,68.0348,54.76661744628906C68.0348,54.76661744628906,68.0348,54.31178744628906,68.0348,54.31178744628906C68.0348,54.31178744628906,1.85527,54.31178744628906,1.85527,54.31178744628906C1.85527,54.31178744628906,1.85527,54.31178744628906,1.85527,54.31178744628906Z" fill="#274697" fill-opacity="1"/></g><g><g><path d="M4.207367248046875,54.311846313476565L65.62845424804686,54.311846313476565C66.13345424804687,54.311846313476565,66.52905424804688,53.94014631347656,66.52905424804688,53.465546313476565L66.52905424804688,15.192646313476562C66.52905424804688,12.812916313476563,64.59295424804688,10.876846313476562,62.21315424804688,10.876846313476562L55.216554248046876,10.876846313476562C54.70315424804687,10.876846313476562,54.31595424804687,11.263992313476562,54.31595424804687,11.777359313476563C54.31595424804687,12.290756313476562,54.70315424804687,12.677936313476563,55.216554248046876,12.677936313476563L62.26735424804688,12.677936313476563C63.654054248046876,12.677936313476563,64.78215424804688,13.806016313476562,64.78215424804688,15.192646313476562L64.78215424804688,52.565046313476564L5.107914248046875,52.565046313476564L5.107914248046875,15.192646313476562C5.107914248046875,13.806016313476562,6.236024248046875,12.677936313476563,7.622684248046875,12.677936313476563L14.565154248046875,12.677936313476563C15.078554248046874,12.677936313476563,15.465654248046874,12.290756313476562,15.465654248046874,11.777359313476563C15.465654248046874,11.263992313476562,15.078554248046874,10.876846313476562,14.565154248046875,10.876846313476562L7.622684248046875,10.876846313476562C5.2429342480468755,10.876846313476562,3.306854248046875,12.812916313476563,3.306854248046875,15.192646313476562L3.306854248046875,53.411346313476564C3.306854248046875,53.92474631347656,3.694000248046875,54.311846313476565,4.207367248046875,54.311846313476565ZM62.42985424804687,51.113446313476565L7.405604248046875,51.113446313476565C6.892224248046875,51.113446313476565,6.505094248046875,50.726246313476565,6.505094248046875,50.21284631347656L6.505094248046875,14.975726313476564C6.505094248046875,14.462356313476562,6.892224248046875,14.075206313476563,7.405604248046875,14.075206313476563L14.482254248046875,14.075206313476563C14.995654248046876,14.075206313476563,15.382854248046876,14.462356313476562,15.382854248046876,14.975726313476564C15.382854248046876,15.489116313476561,14.995654248046876,15.876296313476562,14.482254248046875,15.876296313476562L8.306154248046875,15.876296313476562L8.306154248046875,49.36654631347656L61.529254248046875,49.36654631347656L61.529254248046875,15.876296313476562L55.35315424804688,15.876296313476562C54.83975424804687,15.876296313476562,54.452654248046876,15.489116313476561,54.452654248046876,14.975726313476564C54.452654248046876,14.462356313476562,54.83975424804687,14.075206313476563,55.35315424804688,14.075206313476563L62.484054248046874,14.075206313476563C62.99745424804688,14.075206313476563,63.384554248046875,14.462356313476562,63.384554248046875,14.975726313476564L63.384554248046875,50.23064631347656L63.38205424804688,50.248246313476564C63.30805424804687,50.76574631347656,62.925454248046876,51.113446313476565,62.42985424804687,51.113446313476565Z" fill-rule="evenodd" fill="#274697" fill-opacity="1"/></g></g><g><path d="M51.25188930664063,28.9056C51.25188930664063,28.9056,19.080349306640624,28.9056,19.080349306640624,28.9056C16.648409306640623,28.9056,14.702789306640625,26.9601,14.702789306640625,24.5281C14.702789306640625,24.5281,14.702789306640625,4.37753,14.702789306640625,4.37753C14.702789306640625,1.94556,16.648409306640623,0,19.080349306640624,0C19.080349306640624,0,51.25188930664063,0,51.25188930664063,0C53.68378930664063,0,55.629389306640626,1.94556,55.629389306640626,4.37753C55.629389306640626,4.37753,55.629389306640626,24.5281,55.629389306640626,24.5281C55.629389306640626,26.9601,53.68378930664063,28.9056,51.25188930664063,28.9056C51.25188930664063,28.9056,51.25188930664063,28.9056,51.25188930664063,28.9056ZM19.080349306640624,1.66763C17.551669306640626,1.66763,16.370389306640625,2.91836,16.370389306640625,4.37753C16.370389306640625,4.37753,16.370389306640625,24.5281,16.370389306640625,24.5281C16.370389306640625,26.0568,17.621189306640623,27.238,19.080349306640624,27.238C19.080349306640624,27.238,51.25188930664063,27.238,51.25188930664063,27.238C52.78058930664063,27.238,53.961789306640625,25.9873,53.961789306640625,24.5281C53.961789306640625,24.5281,53.961789306640625,4.37753,53.961789306640625,4.37753C53.961789306640625,2.84888,52.71108930664062,1.66763,51.25188930664063,1.66763C51.25188930664063,1.66763,19.080349306640624,1.66763,19.080349306640624,1.66763C19.080349306640624,1.66763,19.080349306640624,1.66763,19.080349306640624,1.66763Z" fill="#274697" fill-opacity="1"/></g><g><path d="M35.20074498901367,17.23233249092102C35.06184498901367,17.23233249092102,34.85334498901367,17.16283249092102,34.71444498901367,17.09333249092102C34.71444498901367,17.09333249092102,16.16192598901367,3.7522924909210205,16.16192598901367,3.7522924909210205C15.814514239013672,3.4743424909210203,15.675597989013673,2.9879604909210205,15.953460989013672,2.5710674909210205C16.231353989013673,2.2236174909210207,16.717895989013673,2.0846554909210204,17.13470498901367,2.3625794909210205C17.13470498901367,2.3625794909210205,35.20074498901367,15.35623249092102,35.20074498901367,15.35623249092102C35.20074498901367,15.35623249092102,53.26684498901367,2.3625794909210205,53.26684498901367,2.3625794909210205C53.61424498901367,2.0846554909210204,54.170244989013675,2.1541518909210207,54.44814498901367,2.5710674909210205C54.72594498901367,2.9184724909210207,54.656544989013675,3.4743424909210203,54.23964498901367,3.7522924909210205C54.23964498901367,3.7522924909210205,35.687144989013674,17.09333249092102,35.687144989013674,17.09333249092102C35.54824498901367,17.16283249092102,35.33974498901367,17.23233249092102,35.20074498901367,17.23233249092102C35.20074498901367,17.23233249092102,35.20074498901367,17.23233249092102,35.20074498901367,17.23233249092102ZM18.87182498901367,25.70943249092102C18.59384498901367,25.70943249092102,18.38546498901367,25.57043249092102,18.17700498901367,25.36203249092102C17.899014989013672,25.01463249092102,18.03802498901367,24.45873249092102,18.38546498901367,24.25033249092102C18.38546498901367,24.25033249092102,18.524474989013672,24.18083249092102,18.524474989013672,24.18083249092102C18.87182498901367,23.90283249092102,19.42776498901367,24.04183249092102,19.63610498901367,24.38923249092102C19.91415498901367,24.73663249092102,19.775114989013673,25.29253249092102,19.42776498901367,25.50103249092102C19.42776498901367,25.50103249092102,19.28878498901367,25.57043249092102,19.28878498901367,25.57043249092102C19.219204989013672,25.70943249092102,19.01080498901367,25.70943249092102,18.87182498901367,25.70943249092102C18.87182498901367,25.70943249092102,18.87182498901367,25.70943249092102,18.87182498901367,25.70943249092102ZM20.60897498901367,24.52823249092102C20.331054989013673,24.52823249092102,20.12258498901367,24.38923249092102,19.91415498901367,24.18083249092102C19.63610498901367,23.83333249092102,19.775114989013673,23.277432490921022,20.12258498901367,23.06903249092102C20.12258498901367,23.06903249092102,20.40054498901367,22.86063249092102,20.40054498901367,22.86063249092102C20.74795498901367,22.58263249092102,21.30377498901367,22.72163249092102,21.512264989013673,23.06903249092102C21.790254989013672,23.41643249092102,21.651244989013673,23.97233249092102,21.30377498901367,24.18083249092102C21.30377498901367,24.18083249092102,21.09536498901367,24.38923249092102,21.09536498901367,24.38923249092102C20.956394989013674,24.45873249092102,20.74795498901367,24.52823249092102,20.60897498901367,24.52823249092102C20.60897498901367,24.52823249092102,20.60897498901367,24.52823249092102,20.60897498901367,24.52823249092102ZM22.485044989013673,23.20803249092102C22.207154989013674,23.20803249092102,21.998654989013673,23.06903249092102,21.790254989013672,22.86063249092102C21.512264989013673,22.51313249092102,21.651244989013673,21.957332490921022,21.998654989013673,21.74883249092102C21.998654989013673,21.74883249092102,22.276644989013672,21.54033249092102,22.276644989013672,21.54033249092102C22.624024989013673,21.26243249092102,23.179934989013674,21.40143249092102,23.388394989013673,21.74883249092102C23.666324989013674,22.09623249092102,23.527284989013673,22.65213249092102,23.179934989013674,22.86063249092102C23.179934989013674,22.86063249092102,22.90194498901367,23.06903249092102,22.90194498901367,23.06903249092102C22.832454989013673,23.13853249092102,22.624024989013673,23.20803249092102,22.485044989013673,23.20803249092102C22.485044989013673,23.20803249092102,22.485044989013673,23.20803249092102,22.485044989013673,23.20803249092102ZM24.36120498901367,21.88783249092102C24.083224989013672,21.88783249092102,23.87472498901367,21.74883249092102,23.666324989013674,21.54033249092102C23.388394989013673,21.19293249092102,23.527284989013673,20.63703249092102,23.87472498901367,20.42863249092102C23.87472498901367,20.42863249092102,24.15270498901367,20.22013249092102,24.15270498901367,20.22013249092102C24.50012498901367,19.942232490921022,25.05599498901367,20.08123249092102,25.26449498901367,20.42863249092102C25.54232498901367,20.776032490921022,25.403474989013674,21.33193249092102,25.05599498901367,21.54033249092102C25.05599498901367,21.54033249092102,24.77810498901367,21.74883249092102,24.77810498901367,21.74883249092102C24.70852498901367,21.81833249092102,24.50012498901367,21.88783249092102,24.36120498901367,21.88783249092102C24.36120498901367,21.88783249092102,24.36120498901367,21.88783249092102,24.36120498901367,21.88783249092102ZM26.23724498901367,20.56763249092102C25.959244989013673,20.56763249092102,25.750824989013672,20.42863249092102,25.54232498901367,20.22013249092102C25.26449498901367,19.87273249092102,25.403474989013674,19.31683249092102,25.750824989013672,19.10843249092102C25.750824989013672,19.10843249092102,26.02884498901367,18.89993249092102,26.02884498901367,18.89993249092102C26.37614498901367,18.622032490921022,26.932144989013672,18.76093249092102,27.14054498901367,19.10843249092102C27.418444989013672,19.455832490921022,27.279544989013672,20.01173249092102,26.932144989013672,20.22013249092102C26.932144989013672,20.22013249092102,26.654144989013673,20.42863249092102,26.654144989013673,20.42863249092102C26.51514498901367,20.49813249092102,26.37614498901367,20.56763249092102,26.23724498901367,20.56763249092102C26.23724498901367,20.56763249092102,26.23724498901367,20.56763249092102,26.23724498901367,20.56763249092102ZM28.113344989013672,19.24733249092102C27.83534498901367,19.24733249092102,27.627044989013672,19.10843249092102,27.418444989013672,18.89993249092102C27.14054498901367,18.55253249092102,27.279544989013672,17.996632490921023,27.627044989013672,17.78823249092102C27.627044989013672,17.78823249092102,27.90484498901367,17.57973249092102,27.90484498901367,17.57973249092102C28.25234498901367,17.301832490921022,28.80814498901367,17.44073249092102,29.01664498901367,17.78823249092102C29.294644989013673,18.13563249092102,29.155644989013673,18.69153249092102,28.80814498901367,18.89993249092102C28.80814498901367,18.89993249092102,28.530244989013674,19.10843249092102,28.530244989013674,19.10843249092102C28.39124498901367,19.24733249092102,28.25234498901367,19.24733249092102,28.113344989013672,19.24733249092102C28.113344989013672,19.24733249092102,28.113344989013672,19.24733249092102,28.113344989013672,19.24733249092102ZM29.989344989013674,17.927132490921018C29.71144498901367,17.927132490921018,29.503044989013674,17.78823249092102,29.294644989013673,17.57973249092102C29.01664498901367,17.23233249092102,29.155644989013673,16.676432490921023,29.503044989013674,16.46803249092102C29.503044989013674,16.46803249092102,29.64204498901367,16.39853249092102,29.64204498901367,16.39853249092102C29.989344989013674,16.120532490921022,30.54524498901367,16.25953249092102,30.753744989013672,16.606932490921018C31.03164498901367,16.95433249092102,30.89274498901367,17.51023249092102,30.54524498901367,17.71873249092102C30.54524498901367,17.71873249092102,30.406244989013672,17.78823249092102,30.406244989013672,17.78823249092102C30.267344989013672,17.927132490921018,30.128444989013673,17.927132490921018,29.989344989013674,17.927132490921018C29.989344989013674,17.927132490921018,29.989344989013674,17.927132490921018,29.989344989013674,17.927132490921018Z" fill="#274697" fill-opacity="1"/></g><g><path d="M40.34268065209961,17.926845693359375C40.20376465209961,17.926845693359375,39.995329652099606,17.857425693359374,39.85635265209961,17.787905693359374C39.85635265209961,17.787905693359374,39.71749765209961,17.718395693359376,39.71749765209961,17.718395693359376C39.36990211209961,17.440465693359375,39.23098565209961,16.954071693359374,39.50887965209961,16.606690693359376C39.78689465209961,16.259217243359377,40.27328365209961,16.120240693359374,40.62069965209961,16.398209693359377C40.62069965209961,16.398209693359377,40.75979965209961,16.467713693359375,40.75979965209961,16.467713693359375C41.10714965209961,16.745621693359375,41.24605965209961,17.231980693359375,40.96816965209961,17.579455693359375C40.82906965209961,17.857425693359374,40.551179652099606,17.926845693359375,40.34268065209961,17.926845693359375C40.34268065209961,17.926845693359375,40.34268065209961,17.926845693359375,40.34268065209961,17.926845693359375ZM49.51474965209961,24.527925693359375C49.37584965209961,24.527925693359375,49.16719965209961,24.458455693359376,49.02846965209961,24.388935693359375C49.02846965209961,24.388935693359375,48.75045965209961,24.180485693359376,48.75045965209961,24.180485693359376C48.40285965209961,23.902545693359375,48.26406965209961,23.416105693359377,48.54201965209961,22.999235693359374C48.819849652099606,22.651805693359375,49.30629965209961,22.512845693359374,49.72314965209961,22.790785693359375C49.72314965209961,22.790785693359375,50.00114965209961,22.999235693359374,50.00114965209961,22.999235693359374C50.34854965209961,23.277195693359374,50.48744965209961,23.763555693359375,50.20964965209961,24.180485693359376C50.00114965209961,24.388935693359375,49.72314965209961,24.527925693359375,49.51474965209961,24.527925693359375C49.51474965209961,24.527925693359375,49.51474965209961,24.527925693359375,49.51474965209961,24.527925693359375ZM47.63857965209961,23.207735693359375C47.49965965209961,23.207735693359375,47.29128965209961,23.138225693359374,47.15218965209961,23.068745693359375C47.15218965209961,23.068745693359375,46.874359652099606,22.860265693359374,46.874359652099606,22.860265693359374C46.52681965209961,22.582355693359375,46.38790965209961,22.095915693359373,46.66585965209961,21.679015693359375C46.943819652099606,21.331655693359373,47.43019965209961,21.192655693359374,47.847069652099606,21.470565693359376C47.847069652099606,21.470565693359376,48.12514965209961,21.679015693359375,48.12514965209961,21.679015693359375C48.47243965209961,21.957005693359374,48.61153965209961,22.443355693359376,48.33352965209961,22.860265693359374C48.12514965209961,23.068745693359375,47.91658965209961,23.207735693359375,47.63857965209961,23.207735693359375C47.63857965209961,23.207735693359375,47.63857965209961,23.207735693359375,47.63857965209961,23.207735693359375ZM45.83205965209961,21.887465693359374C45.69313965209961,21.887465693359374,45.48452965209961,21.818005693359375,45.34560965209961,21.748525693359376C45.34560965209961,21.748525693359376,45.06765965209961,21.540065693359374,45.06765965209961,21.540065693359374C44.72030965209961,21.262115693359377,44.58138965209961,20.775695693359374,44.85927965209961,20.358825693359375C45.13717965209961,20.011415693359375,45.62368965209961,19.872435693359375,46.04055965209961,20.150375693359376C46.04055965209961,20.150375693359376,46.31838965209961,20.358825693359375,46.31838965209961,20.358825693359375C46.66585965209961,20.636735693359377,46.80477965209961,21.123165693359375,46.52681965209961,21.540065693359374C46.31838965209961,21.748525693359376,46.04055965209961,21.887465693359374,45.83205965209961,21.887465693359374C45.83205965209961,21.887465693359374,45.83205965209961,21.887465693359374,45.83205965209961,21.887465693359374ZM43.95601965209961,20.567275693359374C43.81698965209961,20.567275693359374,43.60860965209961,20.497815693359374,43.46950965209961,20.428345693359375C43.46950965209961,20.428345693359375,43.26113965209961,20.219835693359375,43.26113965209961,20.219835693359375C42.91365965209961,19.941895693359374,42.77474965209961,19.455535693359376,43.05263965209961,19.038605693359376C43.33065965209961,18.691195693359376,43.81698965209961,18.552175693359374,44.23378965209961,18.830185693359375C44.23378965209961,18.830185693359375,44.51186965209961,19.038605693359376,44.51186965209961,19.038605693359376C44.85927965209961,19.316545693359373,44.998259652099605,19.802965693359376,44.72030965209961,20.219835693359375C44.51186965209961,20.428345693359375,44.23378965209961,20.567275693359374,43.95601965209961,20.567275693359374C43.95601965209961,20.567275693359374,43.95601965209961,20.567275693359374,43.95601965209961,20.567275693359374ZM42.14937965209961,19.247085693359374C42.01040965209961,19.247085693359374,41.80184965209961,19.177615693359375,41.66286965209961,19.108095693359374C41.66286965209961,19.108095693359374,41.38503965209961,18.899645693359375,41.38503965209961,18.899645693359375C41.03750965209961,18.621705693359374,40.89852965209961,18.135295693359375,41.176539652099606,17.718395693359376C41.45449965209961,17.371005693359375,41.94082965209961,17.231980693359375,42.35781965209961,17.509945693359374C42.35781965209961,17.509945693359374,42.63576965209961,17.718395693359376,42.63576965209961,17.718395693359376C42.98305965209961,17.996355693359376,43.12209965209961,18.482745693359377,42.84420965209961,18.899645693359375C42.63576965209961,19.177615693359375,42.42733965209961,19.247085693359374,42.14937965209961,19.247085693359374C42.14937965209961,19.247085693359374,42.14937965209961,19.247085693359374,42.14937965209961,19.247085693359374ZM51.18234965209961,25.709125693359375C51.04344965209961,25.709125693359375,50.83494965209961,25.639635693359374,50.69604965209961,25.570205693359377C50.69604965209961,25.570205693359377,50.55704965209961,25.500675693359376,50.55704965209961,25.500675693359376C50.20954965209961,25.222765693359374,50.07064965209961,24.736345693359375,50.34854965209961,24.319475693359376C50.62644965209961,23.972035693359373,51.11294965209961,23.833065693359373,51.52974965209961,24.111025693359373C51.52974965209961,24.111025693359373,51.66864965209961,24.180485693359376,51.66864965209961,24.180485693359376C52.01624965209961,24.458455693359376,52.15514965209961,24.944825693359377,51.87724965209961,25.361755693359378C51.66864965209961,25.639635693359374,51.460249652099606,25.709125693359375,51.18234965209961,25.709125693359375C51.18234965209961,25.709125693359375,51.18234965209961,25.709125693359375,51.18234965209961,25.709125693359375Z" fill="#274697" fill-opacity="1"/></g><g><path d="M35.00657883178711,46.719054321289065C33.976548831787106,46.719054321289065,33.16331383178711,45.90585432128906,33.16331383178711,44.87585432128906C33.16331383178711,43.84585432128906,33.976548831787106,43.03265432128906,35.00657883178711,43.03265432128906C36.036608831787106,43.03265432128906,36.84971883178711,43.84585432128906,36.84971883178711,44.87585432128906C36.84971883178711,45.90585432128906,36.036608831787106,46.719054321289065,35.00657883178711,46.719054321289065C35.00657883178711,46.719054321289065,35.00657883178711,46.719054321289065,35.00657883178711,46.719054321289065ZM35.00657883178711,44.27955432128906C34.68125883178711,44.27955432128906,34.41025883178711,44.55055432128906,34.41025883178711,44.87585432128906C34.41025883178711,45.20115432128906,34.68125883178711,45.47215432128906,35.00657883178711,45.47215432128906C35.33188883178711,45.47215432128906,35.60288883178711,45.20115432128906,35.60288883178711,44.87585432128906C35.60288883178711,44.55055432128906,35.33188883178711,44.27955432128906,35.00657883178711,44.27955432128906C35.00657883178711,44.27955432128906,35.00657883178711,44.27955432128906,35.00657883178711,44.27955432128906ZM35.44016883178711,42.65325432128906C35.44016883178711,42.65325432128906,34.57285883178711,42.65325432128906,34.57285883178711,42.65325432128906C33.976548831787106,42.65325432128906,33.48863083178711,42.219454321289064,33.43443183178711,41.623154321289064C33.43443183178711,41.623154321289064,32.67552063178711,32.786884321289065,32.67552063178711,32.786884321289065C32.62132143178711,32.46156332128906,32.72971983178711,32.13624532128906,32.94651683178711,31.91944932128906C33.16331383178711,31.70265232128906,33.48863083178711,31.540054321289062,33.75974883178711,31.540054321289062C33.75974883178711,31.540054321289062,36.144998831787106,31.540054321289062,36.144998831787106,31.540054321289062C36.47019883178711,31.540054321289062,36.74131883178711,31.648452321289064,36.95810883178711,31.91944932128906C37.17502883178711,32.13624532128906,37.283428831787106,32.46156332128906,37.22922883178711,32.786884321289065C37.22922883178711,32.786884321289065,36.47019883178711,41.623154321289064,36.47019883178711,41.623154321289064C36.52451883178711,42.219454321289064,36.03647883178711,42.65325432128906,35.44016883178711,42.65325432128906C35.44016883178711,42.65325432128906,35.44016883178711,42.65325432128906,35.44016883178711,42.65325432128906ZM34.735458831787106,41.35218432128906C34.735458831787106,41.35218432128906,35.33188883178711,41.35218432128906,35.33188883178711,41.35218432128906C35.33188883178711,41.35218432128906,36.09080883178711,32.84108432128906,36.09080883178711,32.84108432128906C36.09080883178711,32.84108432128906,34.03074883178711,32.84108432128906,34.03074883178711,32.84108432128906C34.03074883178711,32.84108432128906,34.735458831787106,41.35218432128906,34.735458831787106,41.35218432128906C34.735458831787106,41.35218432128906,34.735458831787106,41.35218432128906,34.735458831787106,41.35218432128906Z" fill="#274697" fill-opacity="1"/></g></g></svg>