<svg xmlns="http://www.w3.org/2000/svg" xmlns:xlink="http://www.w3.org/1999/xlink" fill="none" version="1.1" width="56.2392578125" height="56.239501953125" viewBox="0 0 56.2392578125 56.239501953125"><g style="mix-blend-mode:passthrough"><g><path d="M55.3536,56.239384277343746C55.3536,56.239384277343746,0.885658,56.239384277343746,0.885658,56.239384277343746C0.398546,56.239384277343746,0,55.84076427734375,0,55.35369427734375C0,55.35369427734375,0,47.11706527734375,0,47.11706527734375C0,46.62994427734375,0.398546,46.23138427734375,0.885658,46.23138427734375C0.885658,46.23138427734375,55.3536,46.23138427734375,55.3536,46.23138427734375C55.8408,46.23138427734375,56.2393,46.62994427734375,56.2393,47.11706527734375C56.2393,47.11706527734375,56.2393,55.35369427734375,56.2393,55.35369427734375C56.2393,55.84076427734375,55.8408,56.239384277343746,55.3536,56.239384277343746C55.3536,56.239384277343746,55.3536,56.239384277343746,55.3536,56.239384277343746ZM1.77132,54.46801427734375C1.77132,54.46801427734375,54.468,54.46801427734375,54.468,54.46801427734375C54.468,54.46801427734375,54.468,48.00268427734375,54.468,48.00268427734375C54.468,48.00268427734375,1.77132,48.00268427734375,1.77132,48.00268427734375C1.77132,48.00268427734375,1.77132,54.46801427734375,1.77132,54.46801427734375C1.77132,54.46801427734375,1.77132,54.46801427734375,1.77132,54.46801427734375Z" fill="#274697" fill-opacity="1"/></g><g><path d="M17.31458997192383,48.0027C17.31458997192383,48.0027,3.498347971923828,48.0027,3.498347971923828,48.0027C3.0112339719238284,48.0027,2.612689971923828,47.6041,2.612689971923828,47.117C2.612689971923828,47.117,2.612689971923828,7.2624,2.612689971923828,7.2624C2.612689971923828,6.77529,3.0112339719238284,6.37674,3.498347971923828,6.37674C3.498347971923828,6.37674,17.27028997192383,6.37674,17.27028997192383,6.37674C17.757489971923828,6.37674,18.15598997192383,6.77529,18.15598997192383,7.2624C18.15598997192383,7.2624,18.15598997192383,47.117,18.15598997192383,47.117C18.20028997192383,47.6041,17.801689971923828,48.0027,17.31458997192383,48.0027C17.31458997192383,48.0027,17.31458997192383,48.0027,17.31458997192383,48.0027ZM4.383999971923828,46.2314C4.383999971923828,46.2314,16.384689971923827,46.2314,16.384689971923827,46.2314C16.384689971923827,46.2314,16.384689971923827,8.14806,16.384689971923827,8.14806C16.384689971923827,8.14806,4.384009971923828,8.14806,4.384009971923828,8.14806C4.384009971923828,8.14806,4.384009971923828,46.2314,4.384009971923828,46.2314C4.384009971923828,46.2314,4.383999971923828,46.2314,4.383999971923828,46.2314ZM52.74098997192383,48.0027C52.74098997192383,48.0027,38.924689971923826,48.0027,38.924689971923826,48.0027C38.43758997192383,48.0027,38.038989971923826,47.6041,38.038989971923826,47.117C38.038989971923826,47.117,38.038989971923826,7.2624,38.038989971923826,7.2624C38.038989971923826,6.77529,38.43758997192383,6.37674,38.924689971923826,6.37674C38.924689971923826,6.37674,52.69668997192383,6.37674,52.69668997192383,6.37674C53.18378997192383,6.37674,53.58228997192383,6.77529,53.58228997192383,7.2624C53.58228997192383,7.2624,53.58228997192383,47.117,53.58228997192383,47.117C53.62658997192383,47.6041,53.22808997192383,48.0027,52.74098997192383,48.0027C52.74098997192383,48.0027,52.74098997192383,48.0027,52.74098997192383,48.0027ZM39.81028997192383,46.2314C39.81028997192383,46.2314,51.81098997192383,46.2314,51.81098997192383,46.2314C51.81098997192383,46.2314,51.81098997192383,8.14806,51.81098997192383,8.14806C51.81098997192383,8.14806,39.810389971923826,8.14806,39.810389971923826,8.14806C39.810389971923826,8.14806,39.810389971923826,46.2314,39.810389971923826,46.2314C39.810389971923826,46.2314,39.81028997192383,46.2314,39.81028997192383,46.2314ZM35.02778997192383,48.0027C35.02778997192383,48.0027,21.21148997192383,48.0027,21.21148997192383,48.0027C20.724389971923827,48.0027,20.32588997192383,47.6041,20.32588997192383,47.117C20.32588997192383,47.117,20.32588997192383,0.885658,20.32588997192383,0.885658C20.32588997192383,0.398546,20.724389971923827,0,21.21148997192383,0C21.21148997192383,0,34.98348997192383,0,34.98348997192383,0C35.47058997192383,0,35.86918997192383,0.398546,35.86918997192383,0.885658C35.86918997192383,0.885658,35.86918997192383,47.117,35.86918997192383,47.117C35.91348997192383,47.6041,35.51488997192383,48.0027,35.02778997192383,48.0027C35.02778997192383,48.0027,35.02778997192383,48.0027,35.02778997192383,48.0027ZM22.09718997192383,46.2314C22.09718997192383,46.2314,34.09788997192383,46.2314,34.09788997192383,46.2314C34.09788997192383,46.2314,34.09788997192383,1.77132,34.09788997192383,1.77132C34.09788997192383,1.77132,22.09718997192383,1.77132,22.09718997192383,1.77132C22.09718997192383,1.77132,22.09718997192383,46.2314,22.09718997192383,46.2314C22.09718997192383,46.2314,22.09718997192383,46.2314,22.09718997192383,46.2314Z" fill="#274697" fill-opacity="1"/></g><g><path d="M48.44550280761719,14.8347752734375C48.44550280761719,14.8347752734375,43.22010280761719,14.8347752734375,43.22010280761719,14.8347752734375C42.954402807617186,14.8347752734375,42.77730280761719,14.6576452734375,42.77730280761719,14.3919452734375C42.77730280761719,14.1262552734375,42.954402807617186,13.9491152734375,43.22010280761719,13.9491152734375C43.22010280761719,13.9491152734375,48.44550280761719,13.9491152734375,48.44550280761719,13.9491152734375C48.71120280761719,13.9491152734375,48.88830280761719,14.1262552734375,48.88830280761719,14.3919452734375C48.88830280761719,14.6576452734375,48.71120280761719,14.8347752734375,48.44550280761719,14.8347752734375C48.44550280761719,14.8347752734375,48.44550280761719,14.8347752734375,48.44550280761719,14.8347752734375ZM48.44550280761719,20.8572052734375C48.44550280761719,20.8572052734375,43.22010280761719,20.8572052734375,43.22010280761719,20.8572052734375C42.954402807617186,20.8572052734375,42.77730280761719,20.680105273437498,42.77730280761719,20.414405273437502C42.77730280761719,20.1487052734375,42.954402807617186,19.9716052734375,43.22010280761719,19.9716052734375C43.22010280761719,19.9716052734375,48.44550280761719,19.9716052734375,48.44550280761719,19.9716052734375C48.71120280761719,19.9716052734375,48.88830280761719,20.1487052734375,48.88830280761719,20.414405273437502C48.88830280761719,20.680105273437498,48.71120280761719,20.8572052734375,48.44550280761719,20.8572052734375C48.44550280761719,20.8572052734375,48.44550280761719,20.8572052734375,48.44550280761719,20.8572052734375ZM13.639132807617187,21.3886052734375C13.639132807617187,21.3886052734375,7.1738278076171875,21.3886052734375,7.1738278076171875,21.3886052734375C6.908134807617188,21.3886052734375,6.7310028076171875,21.2115052734375,6.7310028076171875,20.9458052734375C6.7310028076171875,20.9458052734375,6.7310028076171875,10.9378852734375,6.7310028076171875,10.9378852734375C6.7310028076171875,10.6721752734375,6.908134807617188,10.495045273437501,7.1738278076171875,10.495045273437501C7.1738278076171875,10.495045273437501,13.683432807617187,10.495045273437501,13.683432807617187,10.495045273437501C13.949122807617186,10.495045273437501,14.126242807617189,10.6721752734375,14.126242807617189,10.9378852734375C14.126242807617189,10.9378852734375,14.126242807617189,20.9901052734375,14.126242807617189,20.9901052734375C14.081982807617187,21.2115052734375,13.904842807617188,21.3887052734375,13.639132807617187,21.3887052734375C13.639132807617187,21.3887052734375,13.639132807617187,21.3886052734375,13.639132807617187,21.3886052734375ZM7.616668807617187,20.503005273437502C7.616668807617187,20.503005273437502,13.240612807617188,20.503005273437502,13.240612807617188,20.503005273437502C13.240612807617188,20.503005273437502,13.240612807617188,11.3807052734375,13.240612807617188,11.3807052734375C13.240612807617188,11.3807052734375,7.616668807617187,11.3807052734375,7.616668807617187,11.3807052734375C7.616668807617187,11.3807052734375,7.616668807617187,20.503005273437502,7.616668807617187,20.503005273437502C7.616668807617187,20.503005273437502,7.616668807617187,20.503005273437502,7.616668807617187,20.503005273437502ZM31.48520280761719,21.3886052734375C31.48520280761719,21.3886052734375,24.754202807617187,21.3886052734375,24.754202807617187,21.3886052734375C24.488502807617188,21.3886052734375,24.31130280761719,21.2115052734375,24.31130280761719,20.9458052734375C24.31130280761719,20.9458052734375,24.31130280761719,5.3582302734375,24.31130280761719,5.3582302734375C24.31130280761719,5.0925292734375,24.488502807617188,4.9154052734375,24.754202807617187,4.9154052734375C24.754202807617187,4.9154052734375,31.48520280761719,4.9154052734375,31.48520280761719,4.9154052734375C31.750802807617188,4.9154052734375,31.928002807617187,5.0925292734375,31.928002807617187,5.3582302734375C31.928002807617187,5.3582302734375,31.928002807617187,20.9901052734375,31.928002807617187,20.9901052734375C31.928002807617187,21.2115052734375,31.750802807617188,21.3887052734375,31.48520280761719,21.3887052734375C31.48520280761719,21.3887052734375,31.48520280761719,21.3886052734375,31.48520280761719,21.3886052734375ZM25.19700280761719,20.503005273437502C25.19700280761719,20.503005273437502,31.042302807617187,20.503005273437502,31.042302807617187,20.503005273437502C31.042302807617187,20.503005273437502,31.042302807617187,5.8010632734375,31.042302807617187,5.8010632734375C31.042302807617187,5.8010632734375,25.19700280761719,5.8010632734375,25.19700280761719,5.8010632734375C25.19700280761719,5.8010632734375,25.19700280761719,20.503005273437502,25.19700280761719,20.503005273437502C25.19700280761719,20.503005273437502,25.19700280761719,20.503005273437502,25.19700280761719,20.503005273437502ZM28.119702807617188,41.4488052734375C25.772702807617186,41.4488052734375,23.868502807617187,39.5446052734375,23.868502807617187,37.1976052734375C23.868502807617187,34.850605273437495,25.772702807617186,32.946505273437495,28.119702807617188,32.946505273437495C30.46660280761719,32.946505273437495,32.37080280761719,34.850605273437495,32.37080280761719,37.1976052734375C32.37080280761719,39.5446052734375,30.46660280761719,41.4488052734375,28.119702807617188,41.4488052734375C28.119702807617188,41.4488052734375,28.119702807617188,41.4488052734375,28.119702807617188,41.4488052734375ZM28.119702807617188,33.8321052734375C26.259802807617188,33.8321052734375,24.754202807617187,35.337805273437496,24.754202807617187,37.1976052734375C24.754202807617187,39.0575052734375,26.259802807617188,40.5632052734375,28.119702807617188,40.5632052734375C29.979502807617187,40.5632052734375,31.48520280761719,39.0575052734375,31.48520280761719,37.1976052734375C31.48520280761719,35.337805273437496,29.979502807617187,33.8321052734375,28.119702807617188,33.8321052734375C28.119702807617188,33.8321052734375,28.119702807617188,33.8321052734375,28.119702807617188,33.8321052734375Z" fill="#274697" fill-opacity="1"/></g></g></svg>