<svg xmlns="http://www.w3.org/2000/svg" xmlns:xlink="http://www.w3.org/1999/xlink" fill="none" version="1.1" width="51.72802734375" height="57.84619140625" viewBox="0 0 51.72802734375 57.84619140625"><g style="mix-blend-mode:passthrough"><g style="mix-blend-mode:passthrough"><g style="mix-blend-mode:passthrough"><g style="mix-blend-mode:passthrough"><g style="mix-blend-mode:passthrough"><g><path d="M17.991027814208984,16.320512580566405Q17.991027814208984,15.555401580566405,18.532043814208983,15.014385580566406Q19.073059814208985,14.473369580566406,19.838170814208983,14.473369580566406L23.173300814208986,14.473369580566406Q23.938710814208985,14.473369580566406,24.479950814208983,15.014601580566406Q25.021180814208982,15.555833580566405,25.021180814208982,16.321252580566405L25.021180814208982,17.323832580566407Q25.021180814208982,18.088942580566407,24.480160814208986,18.629962580566406Q23.939150814208986,19.170982580566406,23.174030814208983,19.170982580566406L19.838900814208984,19.170982580566406Q19.073483814208984,19.170982580566406,18.532255814208984,18.629752580566407Q17.991027814208984,18.088522580566405,17.991027814208984,17.323112580566406L17.991027814208984,16.320512580566405ZM19.597953814208985,16.320512580566405L19.597953814208985,17.323112580566406Q19.597953814208985,17.564052580566408,19.838900814208984,17.564052580566408L23.174030814208983,17.564052580566408Q23.414250814208984,17.564052580566408,23.414250814208984,17.323832580566407L23.414250814208984,16.321252580566405Q23.414250814208984,16.080295580566407,23.173300814208986,16.080295580566407L19.838170814208983,16.080295580566407Q19.738670814208984,16.080295580566407,19.668311814208984,16.150653580566406Q19.597953814208985,16.221012580566406,19.597953814208985,16.320512580566405Z" fill="#274697" fill-opacity="1"/></g><g><path d="M25.662331563293456,16.320512580566405Q25.662331563293456,15.555401580566405,26.203347563293455,15.014385580566406Q26.744363563293458,14.473369580566406,27.509474563293455,14.473369580566406L30.845504563293456,14.473369580566406Q31.610284563293458,14.473369580566406,32.15106456329346,15.014149580566407Q32.69184456329346,15.554930580566406,32.69184456329346,16.319712580566407L32.69184456329346,17.323832580566407Q32.69184456329346,18.088942580566407,32.15083456329346,18.629962580566406Q31.609814563293458,19.170982580566406,30.844704563293458,19.170982580566406L27.509474563293455,19.170982580566406Q26.744363563293458,19.170982580566406,26.203347563293455,18.629962580566406Q25.662331563293456,18.088942580566407,25.662331563293456,17.323832580566407L25.662331563293456,16.320512580566405ZM27.269257563293458,16.320512580566405L27.269257563293458,17.323832580566407Q27.269257563293458,17.564052580566408,27.509474563293455,17.564052580566408L30.844704563293458,17.564052580566408Q31.084924563293455,17.564052580566408,31.084924563293455,17.323832580566407L31.084924563293455,16.319712580566407Q31.084924563293455,16.080295580566407,30.845504563293456,16.080295580566407L27.509474563293455,16.080295580566407Q27.269257563293458,16.080295580566407,27.269257563293458,16.320512580566405Z" fill="#274697" fill-opacity="1"/></g><g><line x1="24.217718601226807" y1="15.000907301902771" x2="26.465829849243164" y2="15.000907301902771" fill-opacity="0" stroke-opacity="1" stroke="#274697" fill="none" stroke-width="1.6090776920318604" stroke-linecap="ROUND" stroke-linejoin="round"/></g></g><g style="mix-blend-mode:passthrough"><g><path d="M35.25229425210953,12.44281005859375L35.25229425210953,14.13361005859375Q35.25229425210953,14.14898005859375,35.251794252109526,14.164350058593751Q35.19089425210953,15.75240005859375,35.23579425210953,17.27832005859375Q35.242994252109526,17.52871005859375,35.26039425210953,17.99023005859375Q35.310594252109524,19.32126005859375,35.251494252109524,19.81802005859375Q35.12689425210952,20.86343005859375,34.45139425210952,21.305940058593748Q33.89389425210953,21.672140058593747,33.11449425210952,21.560340058593752L33.22859425210953,20.765010058593752L34.02099425210953,20.898090058593752Q33.46439425210953,24.21211005859375,31.516394252109528,26.54681005859375Q29.54979425210953,28.90381005859375,26.780694252109527,29.54111005859375Q25.098034252109528,29.92731005859375,23.342814252109527,29.37981005859375Q19.444624252109527,28.16381005859375,17.671734252109527,24.36231005859375Q17.125744252109527,23.19161005859375,16.85407225210953,21.90776005859375Q16.715837252109527,21.25450005859375,16.687179252109527,20.81760005859375L17.488914252109527,20.765010058593752L17.71542425210953,21.53589005859375Q16.830947252109528,21.79578005859375,16.18988725210953,21.423150058593748Q15.453772252109527,20.99686005859375,15.322757252109527,19.80140005859375Q15.258588252109528,19.21589005859375,15.301089252109527,17.40688005859375Q15.306811252109528,17.16331005859375,15.309684252109527,17.03601005859375Q15.310448252109527,17.00205005859375,15.311465252109528,16.95692005859375Q15.363257252109527,14.65696005859375,15.352717252109528,14.24992005859375Q15.350669252109528,14.17082005859375,15.364093252109528,14.09283005859375Q15.377517252109527,14.01484005859375,15.405898252109527,13.94097005859375Q15.434279252109528,13.86710005859375,15.476525252109528,13.80019005859375Q15.518772252109528,13.73327005859375,15.573261252109528,13.67589005859375Q15.627750252109527,13.61850005859375,15.692388252109527,13.57285005859375Q15.757026252109528,13.527200058593749,15.829328252109528,13.49503005859375Q15.901630252109527,13.46286005859375,15.978818252109528,13.44542005859375Q16.056006052109527,13.42798005859375,16.13511375210953,13.42593205859375Q16.214221252109528,13.42388405859375,16.29220825210953,13.43730805859375Q16.370196252109526,13.45073005859375,16.444065252109528,13.47911005859375Q16.517935252109528,13.50749005859375,16.584849252109528,13.54974005859375Q16.65176325210953,13.59199005859375,16.709149252109526,13.64648005859375Q16.766535252109527,13.70096005859375,16.81218825210953,13.76560005859375Q16.857841252109527,13.83024005859375,16.89000625210953,13.90254005859375Q16.922172252109526,13.97484005859375,16.93961425210953,14.05203005859375Q16.957056252109528,14.12922005859375,16.959105252109527,14.20833005859375Q16.970651252109526,14.65425005859375,16.917984252109527,16.99309005859375Q16.916910252109528,17.04075005859375,16.916201252109527,17.07226005859375Q16.91331325210953,17.20024005859375,16.907572252109528,17.44462005859375Q16.848762252109527,19.94778005859375,16.997423252109527,20.033880058593752Q17.04099225210953,20.05920005859375,17.26241425210953,19.99414005859375Q17.347664252109528,19.96909005859375,17.43632425210953,19.96327005859375Q17.515294252109527,19.95809005859375,17.593754252109527,19.96842005859375Q17.672204252109527,19.97874005859375,17.74714425210953,20.00418005859375Q17.822084252109526,20.02961005859375,17.89061425210953,20.06917005859375Q17.959144252109528,20.10874005859375,18.018644252109528,20.16091005859375Q18.078144252109528,20.21308005859375,18.126324252109526,20.27586005859375Q18.17450425210953,20.33864005859375,18.20950425210953,20.40961005859375Q18.24450425210953,20.480590058593748,18.264994252109528,20.55702005859375Q18.285484252109526,20.633460058593748,18.290654252109526,20.71242005859375Q18.31178425210953,21.034450058593748,18.42618425210953,21.57508005859375Q18.659794252109528,22.67901005859375,19.128074252109528,23.683110058593748Q20.600894252109526,26.841210058593752,23.821304252109528,27.84581005859375Q25.16190425210953,28.26391005859375,26.420294252109528,27.97511005859375Q28.66239425210953,27.45911005859375,30.28249425210953,25.51731005859375Q31.951694252109526,23.516810058593748,32.43619425210953,20.63194005859375Q32.44909425210953,20.55509005859375,32.47659425210953,20.48216005859375Q32.50399425210953,20.40922005859375,32.54499425210953,20.342920058593748Q32.585894252109526,20.27662005859375,32.63879425210953,20.219420058593748Q32.69169425210953,20.16222005859375,32.75459425210953,20.11625005859375Q32.817494252109526,20.07028005859375,32.888094252109525,20.037260058593752Q32.958694252109524,20.00424005859375,33.03429425210953,19.98540005859375Q33.10989425210953,19.96656005859375,33.18769425210952,19.96259005859375Q33.26559425210952,19.958630058593748,33.342694252109524,19.96969005859375Q33.51999425210953,19.99513005859375,33.570894252109525,19.96176005859375Q33.72299425210953,19.86211005859375,33.65469425210953,18.05079005859375Q33.63699425210953,17.58236005859375,33.62959425210953,17.32556005859375Q33.58309425210953,15.74530005859375,33.64599425210953,14.10286005859375L34.448894252109525,14.13361005859375L33.645394252109526,14.13361005859375L33.645394252109526,12.44281005859375Q33.645394252109526,12.36367585859375,33.66089425210953,12.28606205859375Q33.67629425210953,12.20844905859375,33.706594252109525,12.13533805859375Q33.73689425210953,12.06222805859375,33.78079425210953,11.99643005859375Q33.82479425210953,11.93063205859375,33.88069425210953,11.87467605859375Q33.93669425210953,11.81872005859375,34.00249425210953,11.77475505859375Q34.068294252109524,11.73079005859375,34.14139425210953,11.70050705859375Q34.21449425210953,11.67022405859375,34.29209425210953,11.65478505859375Q34.369694252109525,11.63934705859375,34.448894252109525,11.63934705859375Q34.52799425210953,11.63934705859375,34.605594252109526,11.65478505859375Q34.68319425210953,11.67022405859375,34.75639425210953,11.70050705859375Q34.82949425210953,11.73079005859375,34.89529425210952,11.77475505859375Q34.96109425210953,11.81872005859375,35.01699425210953,11.87467605859375Q35.072994252109524,11.93063205859375,35.11689425210953,11.99643005859375Q35.16089425210953,12.06222805859375,35.191194252109526,12.13533805859375Q35.22149425210952,12.20844905859375,35.23689425210953,12.28606205859375Q35.25229425210953,12.36367585859375,35.25229425210953,12.44281005859375Z" fill="#274697" fill-opacity="1"/></g><g><path d="M14.813888609191894,9.754926796875Q14.767808609191894,8.453136796875,14.846445609191894,7.654836796875Q14.988623609191894,6.211496796875,15.538325409191895,5.070416796875Q16.572221609191896,2.923226796875,19.046676609191895,1.621159796875Q20.324996609191896,0.948503796875,21.460756609191893,0.706221296875Q24.406346609191893,0.07666579687499997,29.810916609191892,1.287788796875Q29.955716609191896,1.320231796875,30.016016609191894,1.333539796875Q31.166616609191895,1.588475796875,32.176616609191896,1.394971796875Q32.45241660919189,1.3423727968749999,32.5020166091919,1.289629796875Q32.59561660919189,1.190082796875,32.62081660919189,0.756899496875Q32.6253166091919,0.677898796875,32.64521660919189,0.601309796875Q32.665216609191894,0.524721796875,32.69961660919189,0.453488796875Q32.734116609191894,0.382256796875,32.78181660919189,0.319117796875Q32.8295166091919,0.255978796875,32.8886166091919,0.20335979687500005Q32.94771660919189,0.15074079687499997,33.01591660919189,0.11066379687500005Q33.0842166091919,0.070585796875,33.15891660919189,0.044590796875000005Q33.233716609191895,0.018595796875000015,33.31201660919189,0.007681796875000035Q33.390416609191895,-0.003232203125000055,33.469416609191896,0.0013547968749999528Q33.558416609191895,0.00651879687500001,33.6441166091919,0.03104879687499995Q33.7297166091919,0.05557979687500003,33.80791660919189,0.09828279687499997Q33.886116609191895,0.14098679687500004,33.953116609191895,0.19978879687499995Q34.0200166091919,0.258591796875,34.072516609191894,0.330633796875Q34.838216609191896,1.382661796875,35.45341660919189,3.126066796875Q36.676116609191894,6.591466796875,36.0358166091919,10.178016796875Q36.02191660919189,10.255916796875,35.9930166091919,10.329606796875Q35.964216609191894,10.403306796875,35.9215166091919,10.469946796875Q35.87891660919189,10.536606796875,35.824016609191894,10.593646796875Q35.76921660919189,10.650696796875,35.70431660919189,10.695946796875Q35.639316609191894,10.741196796875,35.566816609191896,10.772916796875Q35.4943166091919,10.804666796875,35.41701660919189,10.821566796875Q35.339716609191896,10.838566796875,35.2606166091919,10.840066796875Q35.181516609191895,10.841666796875,35.103616609191896,10.827766796875Q35.025716609191896,10.813866796875,34.952016609191894,10.785016796875Q34.8783166091919,10.756176796875,34.81171660919189,10.713516796875Q34.74501660919189,10.670846796875,34.68801660919189,10.616006796875Q34.6309166091919,10.561166796875,34.58571660919189,10.496246796875Q34.540416609191894,10.431316796875,34.50871660919189,10.358816796875Q34.47701660919189,10.286316796875,34.4600166091919,10.209026796875Q34.44311660919189,10.131726796875,34.44151660919189,10.052616796875Q34.44001660919189,9.973496796875,34.45391660919189,9.895586796875Q35.019716609191896,6.726366796875,33.93801660919189,3.660746796875Q33.400916609191896,2.138616796875,32.773316609191895,1.276299796875L33.422916609191894,0.803466796875L34.2250166091919,0.850034096875Q34.11991660919189,2.660216796875,32.479016609191895,2.973196796875Q31.143016609191896,3.229146796875,29.669516609191895,2.902666796875Q29.606916609191895,2.888836796875,29.459516609191894,2.855826796875Q24.398216609191895,1.721621796875,21.796006609191895,2.277786796875Q20.877076609191896,2.473816796875,19.794976609191895,3.043226796875Q17.789926609191895,4.098286796875,16.986026609191896,5.767836796875Q16.559896609191895,6.652386796875,16.445631609191896,7.812366796875Q16.377531609191895,8.503706796875,16.419808609191893,9.698076796875Q16.422608609191894,9.777166796875,16.409925609191895,9.855276796875Q16.397241609191894,9.933386796875,16.369563609191893,10.007516796875Q16.341885609191895,10.081656796875,16.300276609191894,10.148966796875Q16.258666609191895,10.216276796875,16.204724609191896,10.274176796875Q16.150783609191894,10.332076796875,16.086581609191896,10.378346796875Q16.022380609191895,10.424606796875,15.950387609191894,10.457466796875Q15.878393609191894,10.490316796875,15.801374609191894,10.508486796875Q15.724355609191894,10.526666796875,15.645271409191894,10.529466796875Q15.566186709191895,10.532256796875,15.488075609191895,10.519576796875Q15.409964609191894,10.506896796875,15.335828609191895,10.479216796875Q15.261692609191895,10.451536796875,15.194380609191894,10.409926796875Q15.127068609191895,10.368316796875,15.069168609191895,10.314376796875Q15.011267609191895,10.260436796875,14.965002609191895,10.196236796875Q14.918737609191895,10.132036796875,14.885887609191894,10.060036796875Q14.853036609191895,9.988046796875,14.834862609191894,9.911026796875Q14.816688609191894,9.834006796875,14.813888609191894,9.754926796875Z" fill="#274697" fill-opacity="1"/></g><g><path d="M34.74861132640839,13.22908542602539Q33.81141132640839,13.426095426025391,32.60931132640839,13.48738542602539Q30.127211326408386,13.61391542602539,28.625011326408384,12.896155426025391Q26.917811326408387,12.080185426025391,25.001971326408388,10.48810542602539Q24.064481326408387,9.70905542602539,23.631601326408386,9.48149542602539Q23.014221326408386,9.15694142602539,22.266961326408385,9.186678426025392L22.267171326408388,9.186669426025391Q20.624931326408387,9.25249642602539,19.944441326408388,10.051565426025391Q19.573511326408386,10.48741542602539,19.364001326408385,11.67444542602539Q19.215101326408387,12.51807542602539,19.054881326408385,12.94387542602539Q18.758511326408385,13.731545426025392,18.151981326408386,14.242235426025392Q17.385741326408386,14.887985426025391,16.253572826408387,15.02663542602539Q16.175025426408386,15.036245426025392,16.096110726408387,15.030355426025391Q16.017196326408385,15.02446542602539,15.940946326408387,15.00329542602539Q15.864697326408386,14.98212542602539,15.794043326408387,14.94648542602539Q15.723390326408387,14.91084542602539,15.661047326408386,14.86210542602539Q15.598704326408386,14.81336542602539,15.547067326408387,14.75339542602539Q15.495431326408386,14.693435426025392,15.456485326408385,14.62454542602539Q15.417540326408385,14.55565542602539,15.392782326408387,14.48049542602539Q15.368024326408387,14.405335426025392,15.358406326408387,14.326785426025392Q15.348787326408386,14.24823542602539,15.354677326408385,14.169325426025392Q15.360566326408387,14.090405426025391,15.381739326408386,14.01416542602539Q15.402911326408386,13.937915426025391,15.438552326408386,13.867255426025391Q15.474193326408386,13.79660542602539,15.522932326408386,13.734265426025392Q15.571672326408386,13.67191542602539,15.631638326408385,13.62028542602539Q15.691604326408386,13.568645426025391,15.760491326408387,13.529695426025391Q15.829379326408386,13.490755426025391,15.904540326408386,13.46599542602539Q15.979702326408386,13.44123542602539,16.058249826408385,13.431625426025391Q16.715822326408386,13.351095426025392,17.116990326408388,13.01301542602539Q17.402371326408385,12.77271542602539,17.550901326408386,12.37798542602539Q17.658571326408385,12.091825426025391,17.781531326408388,11.39514542602539Q17.914381326408385,10.642485426025392,18.042571326408385,10.24953542602539Q18.276711326408385,9.53178542602539,18.721021326408387,9.00970942602539Q19.857631326408388,7.6750364260253905,22.202811326408387,7.5810324260253905L22.20306132640839,7.581023426025391Q23.380711326408388,7.534160426025391,24.379331326408387,8.059132426025391Q24.961641326408387,8.36525272602539,26.028991326408388,9.252202426025391Q27.791111326408384,10.716545426025391,29.317911326408385,11.446255426025392Q30.452311326408385,11.98832542602539,32.52751132640839,11.882535426025392Q33.60391132640839,11.827655426025391,34.41801132640839,11.65653542602539Q34.49551132640839,11.64025542602539,34.57461132640839,11.639395426025391Q34.653711326408384,11.63853542602539,34.73151132640839,11.65313542602539Q34.80931132640839,11.66772542602539,34.88271132640838,11.69721542602539Q34.956211326408386,11.72670542602539,35.02241132640839,11.76995542602539Q35.08871132640839,11.813205426025391,35.14531132640839,11.868555426025392Q35.20181132640839,11.92389542602539,35.24651132640838,11.98921542602539Q35.29121132640839,12.05453542602539,35.32231132640838,12.12731542602539Q35.35331132640839,12.20008542602539,35.36961132640839,12.277535426025391Q35.38591132640839,12.35497542602539,35.38671132640839,12.43410542602539Q35.38761132640839,12.51323542602539,35.37301132640839,12.59100542602539Q35.35841132640839,12.66878542602539,35.32891132640839,12.74221542602539Q35.29941132640839,12.81565542602539,35.25621132640839,12.88192542602539Q35.21291132640839,12.94819542602539,35.157611326408386,13.00475542602539Q35.10221132640839,13.061315426025391,35.03691132640839,13.105985426025391Q34.971611326408386,13.150665426025391,34.898811326408385,13.18173542602539Q34.82611132640839,13.21281542602539,34.74861132640839,13.22908542602539Z" fill="#274697" fill-opacity="1"/></g></g></g><g transform="matrix(0.7069451808929443,0.7072683572769165,-0.7072683572769165,0.7069451808929443,29.92887699598782,-8.749731842198571)"><path d="M24.719423276245116,32.420991301635745Q24.719423276245116,31.80644660163574,25.153972276245117,31.371898301635742Q25.588520576245116,30.93734930163574,26.203065276245116,30.93734930163574L28.210026276245117,30.93734930163574Q28.82456627624512,30.93734930163574,29.259116276245116,31.371898301635742Q29.693666276245118,31.806446701635743,29.693666276245118,32.420991301635745L29.693666276245118,34.41895230163574Q29.693666276245118,35.03349230163574,29.259116276245116,35.46804230163574Q28.82456627624512,35.90259230163574,28.210026276245117,35.90259230163574L26.202910276245117,35.90259230163574Q25.58842957624512,35.90259230163574,25.153926276245116,35.46809230163574Q24.719423276245116,35.03358230163574,24.719423276245116,34.41910230163574L24.719423276245116,32.420991301635745ZM26.326349276245118,32.420991301635745L26.326349276245118,34.41910230163574Q26.326349276245118,34.295662301635744,26.202910276245117,34.295662301635744L28.210026276245117,34.295662301635744Q28.158956276245117,34.295662301635744,28.122846276245117,34.331772301635745Q28.086736276245116,34.367882301635746,28.086736276245116,34.41895230163574L28.086736276245116,32.420991301635745Q28.086736276245116,32.47205730163574,28.122846276245117,32.50816630163574Q28.158956276245117,32.54427530163574,28.210026276245117,32.54427530163574L26.203065276245116,32.54427530163574Q26.326349276245118,32.54427530163574,26.326349276245118,32.420991301635745Z" fill="#274697" fill-opacity="1"/></g><g transform="matrix(0.7921121120452881,0.6103756427764893,-0.6103756427764893,0.7921121120452881,22.194916487885166,-5.628353401080858)"><line x1="19.360107421875" y1="28.96539306640625" x2="24.584211349487305" y2="28.96539306640625" fill-opacity="0" stroke-opacity="1" stroke="#274697" fill="none" stroke-width="1.6069259643554688" stroke-linecap="ROUND" stroke-linejoin="round"/></g><g transform="matrix(0.7920940518379211,-0.610399067401886,0.610399067401886,0.7920940518379211,-14.405459258640803,23.687317446868747)"><line x1="27.569522857666016" y1="32.18696594238281" x2="32.72604274749756" y2="32.18696594238281" fill-opacity="0" stroke-opacity="1" stroke="#274697" fill="none" stroke-width="1.6069259643554688" stroke-linecap="ROUND" stroke-linejoin="round"/></g><g transform="matrix(0.47580891847610474,-0.8795486688613892,0.8795486688613892,0.47580891847610474,-26.029223511080204,40.70027483778358)"><line x1="21.13121223449707" y1="41.38410186767578" x2="29.165061950683594" y2="41.38410186767578" fill-opacity="0" stroke-opacity="1" stroke="#274697" fill="none" stroke-width="1.6069259643554688" stroke-linecap="ROUND" stroke-linejoin="round"/></g><g transform="matrix(0.4519481956958771,0.892044186592102,-0.892044186592102,0.4519481956958771,45.607976851903686,-4.106798770694354)"><line x1="26.14623260498047" y1="34.26036834716797" x2="34.28345203399658" y2="34.26036834716797" fill-opacity="0" stroke-opacity="1" stroke="#274697" fill="none" stroke-width="1.6069259643554688" stroke-linecap="ROUND" stroke-linejoin="round"/></g><g style="mix-blend-mode:passthrough"><g transform="matrix(-0.7825081944465637,0.6226403117179871,-0.6226403117179871,-0.7825081944465637,96.23279212695974,33.200961103928144)"><line x1="42.317752838134766" y1="32.60434973239899" x2="57.5623140335083" y2="32.60434973239899" fill-opacity="0" stroke-opacity="1" stroke="#274697" fill="none" stroke-width="1.6069259643554688" stroke-linecap="ROUND" stroke-linejoin="round"/></g><g style="mix-blend-mode:passthrough"><g><path d="M35.48347089892578,47.134467553710934L35.48347089892578,44.47361755371094Q35.48347089892578,44.39448335371094,35.498908898925784,44.31686955371094Q35.514347898925784,44.23925655371094,35.54463089892578,44.16614555371094Q35.57491389892578,44.09303555371094,35.61887889892578,44.02723755371094Q35.66284389892578,43.96143955371094,35.71879989892578,43.90548355371094Q35.77475589892578,43.849527553710935,35.84055389892578,43.805562553710935Q35.906351898925784,43.761597553710935,35.979461898925784,43.73131455371094Q36.05257289892578,43.70103155371094,36.13018589892578,43.68559255371094Q36.20779969892578,43.67015455371094,36.28693389892578,43.67015455371094L45.89911389892578,43.67015455371094Q45.97825389892578,43.67015455371094,46.05586389892578,43.68559255371094Q46.13347389892578,43.70103155371094,46.206583898925786,43.73131455371094Q46.279693898925785,43.761597553710935,46.34553389892578,43.805562553710935Q46.41133389892578,43.849527553710935,46.467233898925784,43.90548355371094Q46.52323389892578,43.96143955371094,46.56713389892578,44.02723755371094Q46.61113389892578,44.09303555371094,46.64143389892578,44.16614555371094Q46.67173389892578,44.23925655371094,46.68713389892578,44.31686955371094Q46.70253389892578,44.39448335371094,46.70253389892578,44.47361755371094L46.70253389892578,47.134467553710934Q46.70253389892578,47.21359755371094,46.68713389892578,47.291217553710936Q46.67173389892578,47.368827553710936,46.64143389892578,47.441937553710936Q46.61113389892578,47.515047553710936,46.56713389892578,47.58084755371094Q46.52323389892578,47.646647553710935,46.467233898925784,47.70259755371094Q46.41133389892578,47.758557553710936,46.34553389892578,47.802517553710935Q46.279693898925785,47.846487553710936,46.206583898925786,47.876767553710934Q46.13347389892578,47.90704755371094,46.05586389892578,47.92248755371094Q45.97825389892578,47.937927553710935,45.89911389892578,47.937927553710935L36.28693389892578,47.937927553710935Q36.20779969892578,47.937927553710935,36.13018589892578,47.92248755371094Q36.05257289892578,47.90704755371094,35.979461898925784,47.876767553710934Q35.906351898925784,47.846487553710936,35.84055389892578,47.802517553710935Q35.77475589892578,47.758557553710936,35.71879989892578,47.70259755371094Q35.66284389892578,47.646647553710935,35.61887889892578,47.58084755371094Q35.57491389892578,47.515047553710936,35.54463089892578,47.441937553710936Q35.514347898925784,47.368827553710936,35.498908898925784,47.291217553710936Q35.48347089892578,47.21359755371094,35.48347089892578,47.134467553710934ZM37.09039689892578,45.27708055371094L37.09039689892578,46.33099755371094L45.09565389892578,46.33099755371094L45.09565389892578,45.27708055371094L37.09039689892578,45.27708055371094Z" fill="#274697" fill-opacity="1"/></g><g><path d="M46.70253389892578,46.45182800292969L46.70253389892578,51.98325800292969Q46.70253389892578,52.06239800292969,46.68713389892578,52.14000800292969Q46.67173389892578,52.21761800292969,46.64143389892578,52.29072800292969Q46.61113389892578,52.363848002929686,46.56713389892578,52.429638002929686Q46.52323389892578,52.49543800292969,46.467233898925784,52.55139800292969Q46.41133389892578,52.60734800292969,46.34553389892578,52.651318002929685Q46.279693898925785,52.69527800292969,46.206583898925786,52.72556800292969Q46.13347389892578,52.75584800292969,46.05586389892578,52.77128800292969Q45.97825389892578,52.786728002929685,45.89911389892578,52.786728002929685L36.28693389892578,52.786728002929685Q36.20779969892578,52.786728002929685,36.13018589892578,52.77128800292969Q36.05257289892578,52.75584800292969,35.979461898925784,52.72556800292969Q35.906351898925784,52.69527800292969,35.84055389892578,52.651318002929685Q35.77475589892578,52.60734800292969,35.71879989892578,52.55139800292969Q35.66284389892578,52.49543800292969,35.61887889892578,52.429638002929686Q35.57491389892578,52.36383800292969,35.54463089892578,52.29072800292969Q35.514347898925784,52.21761800292969,35.498908898925784,52.14000800292969Q35.48347089892578,52.06239800292969,35.48347089892578,51.98325800292969L35.48347089892578,46.45182800292969Q35.48347089892578,46.37269380292969,35.498908898925784,46.29508000292969Q35.514347898925784,46.21746700292969,35.54463089892578,46.14435600292969Q35.57491389892578,46.07124600292969,35.61887889892578,46.00544800292969Q35.66284389892578,45.93965000292969,35.71879989892578,45.88369400292969Q35.77475589892578,45.827738002929685,35.84055389892578,45.783773002929685Q35.906351898925784,45.739808002929685,35.979461898925784,45.70952500292969Q36.05257289892578,45.67924200292969,36.13018589892578,45.66380300292969Q36.20779969892578,45.64836500292969,36.28693389892578,45.64836500292969Q36.36606809892578,45.64836500292969,36.44368189892578,45.66380300292969Q36.52129489892578,45.67924200292969,36.59440589892578,45.70952500292969Q36.66751589892578,45.739808002929685,36.73331389892578,45.783773002929685Q36.79911189892578,45.827738002929685,36.85506789892578,45.88369400292969Q36.911023898925784,45.93965000292969,36.954988898925784,46.00544800292969Q36.998953898925784,46.07124600292969,37.02923689892578,46.14435600292969Q37.05951989892578,46.21746700292969,37.07495889892578,46.29508000292969Q37.09039689892578,46.37269380292969,37.09039689892578,46.45182800292969L37.09039689892578,51.98325800292969L36.28693389892578,51.98325800292969L36.28693389892578,51.17979800292969L45.89911389892578,51.17979800292969L45.89911389892578,51.98325800292969L45.09565389892578,51.98325800292969L45.09565389892578,46.45182800292969Q45.09565389892578,46.37269380292969,45.11109389892578,46.29508000292969Q45.12652389892578,46.21746700292969,45.15681389892578,46.14435600292969Q45.18709389892578,46.07124600292969,45.23106389892578,46.00544800292969Q45.27502389892578,45.93965000292969,45.33098389892578,45.88369400292969Q45.38693389892578,45.827738002929685,45.452733898925786,45.783773002929685Q45.51853389892578,45.739808002929685,45.59164389892578,45.70952500292969Q45.66475389892578,45.67924200292969,45.74236389892578,45.66380300292969Q45.819983898925784,45.64836500292969,45.89911389892578,45.64836500292969Q45.97825389892578,45.64836500292969,46.05586389892578,45.66380300292969Q46.13347389892578,45.67924200292969,46.206583898925786,45.70952500292969Q46.279693898925785,45.739808002929685,46.34553389892578,45.783773002929685Q46.41133389892578,45.827738002929685,46.467233898925784,45.88369400292969Q46.52323389892578,45.93965000292969,46.56713389892578,46.00544800292969Q46.61113389892578,46.07124600292969,46.64143389892578,46.14435600292969Q46.67173389892578,46.21746700292969,46.68713389892578,46.29508000292969Q46.70253389892578,46.37269380292969,46.70253389892578,46.45182800292969Z" fill="#274697" fill-opacity="1"/></g></g><g transform="matrix(0.7824899554252625,0.6226631999015808,-0.6226631999015808,0.7824899554252625,22.70906449493895,1.806677918643409)"><line x1="8.768555641174316" y1="32.60434973239899" x2="24.012556076049805" y2="32.60434973239899" fill-opacity="0" stroke-opacity="1" stroke="#274697" fill="none" stroke-width="1.6069259643554688" stroke-linecap="ROUND" stroke-linejoin="round"/></g><g><path d="M42.12556953125,35.00028789611817L33.38146953125,33.00974889611816L33.559809531249996,32.226327896118164L34.32721953125,32.46431789611817L26.63117653125,57.280527896118166Q26.60773653125,57.356027896118164,26.57000153125,57.425627896118165Q26.53226653125,57.49512789611816,26.48168653125,57.55602789611817Q26.43110653125,57.61692789611816,26.36962453125,57.66672789611816Q26.30814353125,57.716527896118166,26.23812353125,57.75342789611817Q26.16810353125,57.790327896118164,26.09223653125,57.812827896118165Q26.01636853125,57.835327896118166,25.93756933125,57.84252789611816Q25.85876968125,57.849827896118164,25.78006613125,57.841527896118166Q25.70136253125,57.83332789611816,25.62577953125,57.80992789611817Q25.55019653125,57.78642789611816,25.48063853125,57.74872789611817Q25.41108053125,57.71102789611817,25.35022153125,57.660427896118165Q25.28936153125,57.60982789611816,25.23953953125,57.54832789611817Q25.18971753125,57.486827896118164,25.15284653125,57.416827896118164Q25.11597553125,57.346827896118164,25.09347353125,57.27092789611817Q25.07097153125,57.195127896118166,25.06370353125,57.116327896118165Q25.05643453125,57.03752789611816,25.06467853125,56.958827896118166Q25.07292253125,56.88012789611817,25.09636253125,56.80452789611816L32.79240953125,31.988337896118164Q32.814689531249996,31.916476896118166,32.84992953125,31.850001896118165Q32.88516953125,31.783527896118166,32.93213953125,31.724751896118164Q32.97910953125,31.665974896118165,33.036169531249996,31.616940896118162Q33.09323953125,31.567905896118162,33.15840953125,31.530318896118164Q33.22358953125,31.492730896118164,33.29460953125,31.467895896118165Q33.36562953125,31.443061896118163,33.44002953125,31.431844896118164Q33.51441953125,31.420627896118162,33.58960953125,31.423417896118163Q33.66478953125,31.426207896118164,33.73814953125,31.442906896118163L42.48226953125,33.43344789611817Q42.55946953125,33.45100789611816,42.63166953125,33.48328789611816Q42.703969531249996,33.51557789611817,42.76846953125,33.561327896118165Q42.833069531250004,33.607087896118166,42.887469531250005,33.66455789611816Q42.94186953125,33.72202789611816,42.98406953125,33.789007896118164Q43.026169531250005,33.855987896118165,43.05446953125,33.929907896118166Q43.082669531250005,34.003817896118164,43.09596953125,34.08182789611816Q43.10926953125,34.15983789611816,43.107069531250005,34.238937896118166Q43.10496953125,34.318047896118166,43.087369531250005,34.395207896118166Q43.06976953125,34.472367896118165,43.03756953125,34.54461789611816Q43.00526953125,34.616867896118166,42.95946953125,34.68143789611816Q42.91376953125,34.74599789611816,42.85626953125,34.80039789611816Q42.79876953125,34.854797896118164,42.731769531249995,34.89693789611816Q42.664869531250005,34.939077896118164,42.59086953125,34.96733789611817Q42.51696953125,34.99559789611816,42.438969531249995,35.008897896118164Q42.36096953125,35.022197896118165,42.281869531249995,35.020027896118165Q42.20276953125,35.01784789611816,42.12556953125,35.00028789611817Z" fill="#274697" fill-opacity="1"/></g><g><path d="M25.11442265625,57.332805825805664L19.95022265625,43.99490582580567Q19.93612265625,43.958705825805666,19.92562265625,43.921205825805664L16.71642265625,32.442543825805664L17.49022265625,32.226205825805664L17.66832265625,33.00967682580566L8.94380265625,34.993135825805666L7.30663265625,35.369585825805665Q7.05064265625,35.42593582580567,6.79765265625,35.50046582580566Q4.62294265625,36.16316582580566,3.26724265625,38.08904582580566Q1.92680265625,39.993245825805666,1.92199265625,42.35110582580566Q1.92193265625,42.381605825805664,1.91955265625,42.412005825805664L1.6042446562500001,46.44790582580566L0.80322265625,46.385305825805666L1.37539065625,45.82120582580566L11.88202265625,56.47870582580566L11.30982265625,57.04270582580567L11.30982265625,56.239305825805666L50.92482265625,56.239305825805666L50.92482265625,57.04270582580567L50.12322265625,57.097805825805665L49.11542265625,42.439005825805665Q49.11342265625,42.409905825805666,49.11352265625,42.38070582580566Q49.12272265625,40.01657582580567,47.78102265625,38.102195825805666Q46.42572265625,36.168275825805665,44.23612265625,35.498015825805666Q44.00192265625,35.42600582580567,43.74932265625,35.372695825805664L42.12392265625,34.99978582580567Q42.04682265625,34.98208582580566,41.97462265625,34.94967582580566Q41.90242265625,34.917265825805664,41.83792265625,34.87139582580566Q41.77342265625,34.82552582580566,41.71912265625,34.76796582580566Q41.66482265625,34.71039582580566,41.62282265625,34.643335825805664Q41.58082265625,34.57628582580566,41.55262265625,34.50231582580567Q41.52452265625,34.42835582580567,41.51132265625,34.35032582580566Q41.49822265625,34.27228582580567,41.50052265625,34.193185825805664Q41.50282265625,34.11408582580567,41.52052265625,34.03695582580566Q41.53822265625,33.95983582580566,41.57062265625,33.88763582580567Q41.60302265625,33.81544582580566,41.64892265625,33.75095582580566Q41.69482265625,33.686475825805665,41.75242265625,33.63217582580566Q41.80992265625,33.577885825805666,41.87702265625,33.535865825805665Q41.94402265625,33.49383582580566,42.01802265625,33.465705825805664Q42.09202265625,33.437575825805666,42.17002265625,33.42441582580567Q42.24802265625,33.411245825805665,42.32712265625,33.41356582580566Q42.40622265625,33.415875825805664,42.48342265625,33.43357582580566L44.08122265625,33.800415825805665Q44.40482265625,33.868715825805666,44.70642265625,33.961475825805664Q47.42442265625,34.79348582580566,49.09702265625,37.179935825805664Q50.73162265625,39.51234582580567,50.72042265625,42.387005825805666L49.91702265625,42.38390582580566L50.71852265625,42.32870582580566L51.72642265625,56.98760582580566Q51.72822265625,57.01510582580566,51.72822265625,57.04270582580567Q51.72822265625,57.12190582580567,51.71282265625,57.19950582580566Q51.69742265625,57.27710582580566,51.66712265625,57.35020582580566Q51.63682265625,57.42330582580566,51.59282265625,57.489105825805666Q51.54892265625,57.55490582580566,51.49292265625,57.61090582580566Q51.43702265625,57.66680582580567,51.37122265625,57.710805825805664Q51.30542265625,57.754705825805665,51.23232265625,57.78500582580567Q51.15912265625,57.815305825805666,51.08152265625,57.830705825805666Q51.00392265625,57.84620582580567,50.92482265625,57.84620582580567L11.30982265625,57.84620582580567Q11.14852265625,57.84620582580567,10.99972265625,57.78390582580566Q10.85092265625,57.721705825805664,10.73764265625,57.606805825805665L0.23105465625,46.94940582580566Q0.10843065625000003,46.82500582580566,0.04851365625000004,46.66090582580566Q-0.01140434374999999,46.49690582580566,0.002200656249999988,46.32270582580566L0.31750865625,42.286805825805665L1.11853065625,42.34940582580566L0.31506865625,42.347805825805665Q0.32091465625,39.482905825805666,1.95323265625,37.164065825805665Q3.62662265625,34.78688582580566,6.34358265625,33.95902582580566Q6.65049265625,33.86861582580566,6.94654265625,33.803525825805664L8.58757265625,33.426195825805664L17.31212265625,31.442734825805665Q17.38682265625,31.425742825805663,17.46342265625,31.423188825805664Q17.54002265625,31.420634825805664,17.61572265625,31.432610825805664Q17.69152265625,31.444585825805664,17.76352265625,31.470658825805664Q17.83562265625,31.496731825805664,17.90142265625,31.535962825805665Q17.96732265625,31.575192825805665,18.02452265625,31.626164825805663Q18.08182265625,31.677136825805665,18.12832265625,31.738011825805664Q18.17492265625,31.798886825805663,18.20912265625,31.867468825805663Q18.24342265625,31.936051825805663,18.26402265625,32.009867825805664L21.47322265625,43.48850582580566L20.69942265625,43.704805825805664L21.44872265625,43.41470582580566L26.61292265625,56.75260582580566Q26.64152265625,56.826405825805665,26.65512265625,56.90440582580567Q26.66872265625,56.98230582580567,26.66692265625,57.061405825805664Q26.66502265625,57.14050582580566,26.64782265625,57.21780582580566Q26.63052265625,57.29500582580566,26.59862265625,57.36740582580566Q26.56662265625,57.439805825805664,26.52112265625,57.504505825805666Q26.47562265625,57.569305825805664,26.41842265625,57.623905825805664Q26.36112265625,57.67860582580566,26.29432265625,57.72100582580566Q26.22752265625,57.76340582580566,26.15372265625,57.79200582580566Q26.07992265625,57.820605825805664,26.00202265625,57.83420582580567Q25.92402265625,57.847805825805665,25.84492265625,57.84600582580566Q25.76582265625,57.84410582580566,25.68862265625,57.82690582580567Q25.61132265625,57.80960582580566,25.53892265625,57.77770582580567Q25.46662265625,57.745705825805665,25.40182265625,57.70020582580567Q25.33702265625,57.654705825805664,25.28242265625,57.59750582580567Q25.22782265625,57.540205825805664,25.18542265625,57.47340582580566Q25.14292265625,57.40660582580566,25.11442265625,57.332805825805664Z" fill="#274697" fill-opacity="1"/></g></g><g transform="matrix(0.02995818480849266,0.9995511770248413,-0.9995511770248413,0.02995818480849266,43.53478220431553,4.81654969733637)"><line x1="19.28585433959961" y1="24.034381866455078" x2="24.21909523010254" y2="24.034381866455078" fill-opacity="0" stroke-opacity="1" stroke="#274697" fill="none" stroke-width="1.6069259643554688" stroke-linecap="ROUND" stroke-linejoin="round"/></g><g transform="matrix(0.02665969729423523,0.9996445775032043,-0.9996445775032043,0.02665969729423523,55.03381959743035,-7.913313637286933)"><line x1="31.580493927001953" y1="23.50042724609375" x2="37.12146282196045" y2="23.50042724609375" fill-opacity="0" stroke-opacity="1" stroke="#274697" fill="none" stroke-width="1.6069259643554688" stroke-linecap="ROUND" stroke-linejoin="round"/></g><g transform="matrix(-0.749423086643219,0.6620914340019226,-0.6620914340019226,-0.749423086643219,53.57870678972597,39.26016906316693)"><line x1="19.360097885131836" y1="28.96539306640625" x2="21.858232021331787" y2="28.96539306640625" fill-opacity="0" stroke-opacity="1" stroke="#274697" fill="none" stroke-width="1.6069259643554688" stroke-linecap="ROUND" stroke-linejoin="round"/></g><g transform="matrix(0.7694116234779358,0.6387532949447632,-0.6387532949447632,0.7694116234779358,26.361280276987486,-13.337638648685925)"><line x1="31.653947830200195" y1="29.039432525634766" x2="34.12742877006531" y2="29.039432525634766" fill-opacity="0" stroke-opacity="1" stroke="#274697" fill="none" stroke-width="1.6069259643554688" stroke-linecap="ROUND" stroke-linejoin="round"/></g></g></g></g></svg>