<svg xmlns="http://www.w3.org/2000/svg" width="26.006" height="34.275" viewBox="0 0 26.006 34.275">
  <g id="组_94" data-name="组 94" transform="translate(-1770.999 -1549.106)">
    <path id="caigoushenqing" d="M103.558,59.877H91.326a1.846,1.846,0,0,1-1.844-1.844V51.12a2.883,2.883,0,0,0-2.88-2.88h-.04a.518.518,0,0,0,0,1.036h.04a1.846,1.846,0,0,1,1.844,1.844v6.912a2.885,2.885,0,0,0,2.039,2.755.511.511,0,0,0-.017.131,1.921,1.921,0,0,0,3.841,0v-.006h4.443v.006a1.921,1.921,0,0,0,3.841,0v-.006h.968a.518.518,0,0,0,0-1.036ZM93.272,60.918a.884.884,0,1,1-1.769,0v-.006h1.769Zm8.282,0a.884.884,0,1,1-1.769,0v-.006h1.769ZM90.468,51.783V57.25a1.763,1.763,0,0,0,1.761,1.761h9.011A1.763,1.763,0,0,0,103,57.25V51.783a1.763,1.763,0,0,0-1.761-1.761h-9.01A1.763,1.763,0,0,0,90.468,51.783Zm11.5,0V57.25a.726.726,0,0,1-.725.725H92.229a.726.726,0,0,1-.725-.725V51.783a.726.726,0,0,1,.725-.725h9.011a.726.726,0,0,1,.725.725Zm-8.142,2.734A.518.518,0,0,1,94.341,54h4.787a.518.518,0,0,1,0,1.036H94.341a.518.518,0,0,1-.518-.52Z" transform="translate(1692.926 1520.542)" fill="#294894"/>
    <path id="减去_1" data-name="减去 1" d="M6.678,32.571H.506a.506.506,0,0,1-.506-.5V7.7a.507.507,0,0,1,.506-.5H6.49a.534.534,0,0,1,.379.177.474.474,0,0,1,.1.4l-.2,1.136H17.7l-.2-1.136a.55.55,0,0,1,.1-.4.535.535,0,0,1,.379-.177h5.985a.506.506,0,0,1,.5.506v8.416h-.985V8.206H18.61l.2,1.136a.54.54,0,0,1-.1.4.533.533,0,0,1-.379.177H6.187a.536.536,0,0,1-.38-.177.474.474,0,0,1-.1-.4l.2-1.136h-4.9V31.562H6.678V32.57ZM14.645,5h-4.8A1.011,1.011,0,0,1,8.839,3.989V2.55A2.54,2.54,0,0,1,11.362,0H13.1a2.553,2.553,0,0,1,2.55,2.55V3.989A1.011,1.011,0,0,1,14.645,5ZM11.389,1.011A1.542,1.542,0,0,0,9.847,2.55V3.989h4.8V2.55A1.542,1.542,0,0,0,13.1,1.011Z" transform="translate(1770.999 1549.106)" fill="#294894"/>
    <path id="路径_4164" data-name="路径 4164" d="M279.473,137.073h-15.68a.252.252,0,1,1,0-.5h15.68a.239.239,0,0,1,.253.252.253.253,0,0,1-.253.253Zm0,3.742h-15.68a.253.253,0,1,1,0-.505h15.68a.239.239,0,0,1,.253.252A.253.253,0,0,1,279.473,140.815Zm-1.969-7.156h-12.12a.537.537,0,0,1-.379-.177.474.474,0,0,1-.1-.4l.808-4.848a.514.514,0,0,1,.505-.429H276.7a.514.514,0,0,1,.5.429l.808,4.848a.545.545,0,0,1-.1.4.538.538,0,0,1-.408.177Zm-11.514-1.01h10.933l-.656-3.838h-9.645Z" transform="translate(1511.802 1425.369)" fill="#294894"/>
  </g>
</svg>
