<?xml version="1.0" standalone="no"?><!DOCTYPE svg PUBLIC "-//W3C//DTD SVG 1.1//EN" "http://www.w3.org/Graphics/SVG/1.1/DTD/svg11.dtd"><svg class="icon" width="200px" height="200.00px" viewBox="0 0 1024 1024" version="1.1" xmlns="http://www.w3.org/2000/svg"><path d="M927.997506 277.80418233333336l-214.58731 0 41.208541-123.615389c6.364965-19.094894-7.848759-38.814004-27.977191-38.814004l-1.391696 0c-12.637832 0-23.873734 8.05342-27.926026 20.026102l-44.493354 131.361817c-1.258667 3.704368-1.729387 7.439436-1.545192 11.041474l-281.511535 0c0.184195-3.489474-0.26606-7.111978-1.432629-10.703783l-42.733267-131.361817c-1.974981-6.068206-5.791913-11.164271-10.714016-14.735609s-10.939143-5.628184-17.324574-5.628184c-20.005636 0-34.198893 19.504216-28.059056 38.537711l39.97034 123.891681-216.889749 0c-16.280802 0-29.481452 13.20065-29.481452 29.481452l0 579.580165c0 16.280802 13.20065 29.481452 29.481452 29.481452l835.406714 0c16.280802 0 29.481452-13.20065 29.481452-29.481452l0-579.580165C957.478957 291.00483233333335 944.278307 277.80418233333336 927.997506 277.80418233333336zM896.080585 821.3742013333333c0 16.280802-13.20065 29.481452-29.481452 29.481452l-709.540052 0c-16.280802 0-29.481452-13.20065-29.481452-29.481452l0-448.596971c0-16.280802 13.20065-29.481452 29.481452-29.481452l709.540052 0c16.280802 0 29.481452 13.20065 29.481452 29.481452L896.080585 821.3742013333333z" fill="#bfbfbf" /><path d="M319.063803 632.0594853333332c0 16.280802-13.19758 29.481452-29.475312 29.481452l-2.434445 0c-16.276708 0-29.475312-13.20065-29.475312-29.481452l0-133.2447c0-16.280802 13.19758-29.481452 29.475312-29.481452l2.434445 0c16.276708 0 29.475312 13.20065 29.475312 29.481452L319.063803 632.0594853333332z" fill="#bfbfbf" /><path d="M620.442828 786.1591653333332L403.089521 786.1591653333332c-7.099698 0-10.640338-8.575306-5.627161-13.589506l108.824521-108.695584c3.109828-3.110851 8.143471-3.110851 11.254322 0l108.527762 108.705817C631.071909 777.5940923333333 627.52206 786.1591653333332 620.442828 786.1591653333332z" fill="#bfbfbf" /><path d="M767.172657 632.0594853333332c0 16.280802-13.19758 29.481452-29.475312 29.481452l-4.481058 0c-16.276708 0-29.475312-13.20065-29.475312-29.481452l0-133.2447c0-16.280802 13.19758-29.481452 29.475312-29.481452l4.481058 0c16.276708 0 29.475312 13.20065 29.475312 29.481452L767.172657 632.0594853333332z" fill="#bfbfbf" /></svg>