<svg xmlns="http://www.w3.org/2000/svg" xmlns:xlink="http://www.w3.org/1999/xlink" width="32" height="30" viewBox="0 0 32 30">
  <defs>
    <linearGradient id="linear-gradient" x1="0.5" x2="0.5" y2="1" gradientUnits="objectBoundingBox">
      <stop offset="0" stop-color="#60d3af"/>
      <stop offset="1" stop-color="#3ac6ae"/>
    </linearGradient>
  </defs>
  <g id="application_default_-_17" data-name="application default - 17" transform="translate(-138 -170)">
    <rect id="矩形_157" data-name="矩形 157" width="32" height="30" transform="translate(138 170)" fill="#fff"/>
    <path id="联合_45" data-name="联合 45" d="M2.424,30A2.423,2.423,0,0,1,0,27.578V2.424A2.424,2.424,0,0,1,2.424,0H16.741V4.586a3.986,3.986,0,0,0,3.982,3.982h4.484V27.578A2.423,2.423,0,0,1,22.785,30ZM4,24.6H21.209V22.981H4Zm0-5.2H21.209V17.785H4Zm0-5.2H21.209V12.589H4ZM20.724,7.007A2.423,2.423,0,0,1,18.3,4.586V0l6.908,7.007Z" transform="translate(141.396 170)" fill="url(#linear-gradient)"/>
    <rect id="矩形_188" data-name="矩形 188" width="32" height="30" transform="translate(138 170)" fill="none" opacity="0.58"/>
  </g>
</svg>
