<svg xmlns="http://www.w3.org/2000/svg" xmlns:xlink="http://www.w3.org/1999/xlink" width="32" height="30" viewBox="0 0 32 30"><defs><style>.a{fill:none;}.b{clip-path:url(#a);}.c{stroke:rgba(0,0,0,0);fill:url(#b);}</style><clipPath id="a"><rect class="a" width="32" height="30" transform="translate(609 431)"/></clipPath><linearGradient id="b" x1="0.5" x2="0.5" y2="1" gradientUnits="objectBoundingBox"><stop offset="0" stop-color="#8bc2ff"/><stop offset="1" stop-color="#398fff"/></linearGradient></defs><g class="b" transform="translate(-609 -431)"><g transform="translate(609 431)"><path class="c" d="M-2628.847-408.087a7.1,7.1,0,0,1,7.087-7.086,7.072,7.072,0,0,1,5.421,2.524,1.628,1.628,0,0,1-.2,2.293,1.627,1.627,0,0,1-2.294-.2,3.824,3.824,0,0,0-2.93-1.364,3.835,3.835,0,0,0-3.831,3.83,3.836,3.836,0,0,0,3.831,3.831,3.824,3.824,0,0,0,2.937-1.371,1.628,1.628,0,0,1,2.292-.2,1.627,1.627,0,0,1,.2,2.293,7.069,7.069,0,0,1-5.43,2.534A7.1,7.1,0,0,1-2628.847-408.087Zm-5.238,5.459v-1.84h-7.66v1.963l-.013.007a1.622,1.622,0,0,1-1.615,1.5,1.624,1.624,0,0,1-1.618-1.532l-.009,0v-5.549a7.084,7.084,0,0,1,7.085-7.085,7.085,7.085,0,0,1,7.086,7.085v5.458a1.628,1.628,0,0,1-1.628,1.627A1.628,1.628,0,0,1-2634.085-402.628Zm-7.66-5.458v.358h7.66v-.358a3.834,3.834,0,0,0-3.83-3.829A3.833,3.833,0,0,0-2641.745-408.086Zm12.9-10.23v-5.2c0-.322,0-.5,0-.754a6.728,6.728,0,0,1,6.727-6.728,6.728,6.728,0,0,1,6.728,6.728,6.728,6.728,0,0,1-6.728,6.727,6.685,6.685,0,0,1-2.643-.541,2.026,2.026,0,0,1-2.008,1.8A2.069,2.069,0,0,1-2628.846-418.316Zm4.008-6.988v2.182a2.367,2.367,0,0,0,2.367,2.367h.289a3.386,3.386,0,0,0,3.387-3.386v-.145a3.386,3.386,0,0,0-3.387-3.386h-.289A2.368,2.368,0,0,0-2624.838-425.3ZM-2645-423.914a7.085,7.085,0,0,1,7.085-7.086,7.086,7.086,0,0,1,7.086,7.086,7.086,7.086,0,0,1-7.086,7.086A7.085,7.085,0,0,1-2645-423.914Zm3.255,0a3.834,3.834,0,0,0,3.83,3.83,3.834,3.834,0,0,0,3.83-3.83,3.834,3.834,0,0,0-3.83-3.829A3.834,3.834,0,0,0-2641.745-423.914Z" transform="translate(2646.196 431)"/></g></g></svg>