<svg xmlns="http://www.w3.org/2000/svg" xmlns:xlink="http://www.w3.org/1999/xlink" width="32.929" height="30.894" viewBox="0 0 32.929 30.894">
  <defs>
    <linearGradient id="linear-gradient" x1="0.5" x2="0.5" y2="1" gradientUnits="objectBoundingBox">
      <stop offset="0" stop-color="#e8877f"/>
      <stop offset="1" stop-color="#e3482b"/>
    </linearGradient>
  </defs>
  <g id="组_55" data-name="组 55" transform="translate(-1365.571 -638.5)">
    <rect id="矩形_203" data-name="矩形 203" width="32" height="30" transform="translate(1366 639)" fill="none"/>
    <g id="组_54" data-name="组 54" transform="translate(1365.995 638.893)">
      <path id="路径_229" data-name="路径 229" d="M31.262,26.235h-.006L25.525,21.3A13.8,13.8,0,1,0,.754,18.157c.058.244.218.207.308.025a7.878,7.878,0,0,1,5.58-3.839c.275-.051.361-.19.361-.358,0-.043,0-.086,0-.13a6.856,6.856,0,1,1,8.818,6.562.251.251,0,0,0-.185.328,7.871,7.871,0,0,1-1.981,6.736c-.143.133-.057.219.081.22A13.778,13.778,0,0,0,22.7,24.515l5.762,4.966a2.143,2.143,0,1,0,2.8-3.246Z" fill="url(#linear-gradient)"/>
      <path id="路径_229_-_轮廓" data-name="路径 229 - 轮廓" d="M29.861,30.5a2.642,2.642,0,0,1-1.725-.642l-5.446-4.694A14.327,14.327,0,0,1,13.872,28.2h-.144a.635.635,0,0,1-.611-.388.62.62,0,0,1,.178-.683,7.371,7.371,0,0,0,1.845-6.3.752.752,0,0,1,.5-.885l.032-.011A6.353,6.353,0,1,0,7.5,13.855c0,.036,0,.071,0,.107v.023a.848.848,0,0,1-.77.85l-.013,0A7.344,7.344,0,0,0,1.5,18.421a.7.7,0,0,1-.608.408.645.645,0,0,1-.62-.535A14.286,14.286,0,0,1,7.087,1.318a14.4,14.4,0,0,1,6.8-1.711A14.3,14.3,0,0,1,26.174,21.2l5.268,4.536h.006l.141.121A2.643,2.643,0,0,1,29.861,30.5ZM22.706,23.86,28.788,29.1a1.643,1.643,0,0,0,2.23-2.412L24.871,21.4l.231-.365A13.3,13.3,0,1,0,2.64,6.785,13.247,13.247,0,0,0,1.026,17.31,8.327,8.327,0,0,1,6.5,13.859s0,0,0,0a7.356,7.356,0,1,1,14.712,0,7.273,7.273,0,0,1-1.488,4.43,7.429,7.429,0,0,1-3.569,2.55,8.373,8.373,0,0,1-1.6,6.349,13.317,13.317,0,0,0,7.826-3.053Z" fill="rgba(0,0,0,0)"/>
      <path id="路径_230" data-name="路径 230" d="M10.55,18.115H5.206a.573.573,0,0,0-.573.572v7.252a.191.191,0,0,0,.092.163.188.188,0,0,0,.1.028.2.2,0,0,0,.088-.021l2.966-1.534,2.966,1.534a.191.191,0,0,0,.278-.17V18.687A.573.573,0,0,0,10.55,18.115Z" fill="url(#linear-gradient)"/>
      <path id="路径_230_-_轮廓" data-name="路径 230 - 轮廓" d="M5.206,17.615H10.55a1.073,1.073,0,0,1,1.072,1.072v7.252a.689.689,0,0,1-.326.587l-.007,0a.7.7,0,0,1-.672.025L7.878,25.138,5.136,26.556a.7.7,0,0,1-.672-.028.687.687,0,0,1-.331-.589V18.687A1.074,1.074,0,0,1,5.206,17.615Zm5.416,7.816V18.687a.073.073,0,0,0-.072-.072H5.206a.073.073,0,0,0-.073.072v6.745l2.745-1.42Z" fill="rgba(0,0,0,0)"/>
    </g>
  </g>
</svg>
