<svg xmlns="http://www.w3.org/2000/svg" xmlns:xlink="http://www.w3.org/1999/xlink" width="33.707" height="31.205" viewBox="0 0 33.707 31.205">
  <defs>
    <linearGradient id="linear-gradient" x1="0.5" x2="0.5" y2="1" gradientUnits="objectBoundingBox">
      <stop offset="0" stop-color="#9983fe"/>
      <stop offset="1" stop-color="#7c66f6"/>
    </linearGradient>
  </defs>
  <g id="组_69" data-name="组 69" transform="translate(1.207 1.205)">
    <path id="路径_246" data-name="路径 246" d="M5.214,25.081" fill="#c1c1c1"/>
    <path id="减去_4" data-name="减去 4" d="M-2997.774-824.787a.226.226,0,0,1-.105-.024c-.155-.083-.116-.329-.116-.331V-837.05a2.071,2.071,0,0,1,.33-1.259,3.107,3.107,0,0,1,.971-.738l.806-.318a8.692,8.692,0,0,1,3.182-.6,8.719,8.719,0,0,1,2.806.463l1.247.423a.759.759,0,0,0,.246.041.768.768,0,0,0,.233-.036l1.557-.5a8.689,8.689,0,0,1,2.676-.421,8.679,8.679,0,0,1,3.111.574l1.034.4a2.479,2.479,0,0,1,.913.689,1.826,1.826,0,0,1,.356,1.021v12.154s.023.281-.1.337a.254.254,0,0,1-.1.017.791.791,0,0,1-.223-.041l-2.5-1a6.212,6.212,0,0,0-2.324-.449,6.243,6.243,0,0,0-1.969.318l-2.1.7a.755.755,0,0,1-.24.039.746.746,0,0,1-.222-.034l-2.537-.776a6.254,6.254,0,0,0-1.832-.274,6.219,6.219,0,0,0-2.361.463l-2.471,1.008A.6.6,0,0,1-2997.774-824.787Zm9.511-12.207a.826.826,0,0,0-.825.825v7.55a.826.826,0,0,0,.825.824.826.826,0,0,0,.825-.824v-7.55A.826.826,0,0,0-2988.263-836.994Z" transform="translate(3010.525 853.839)" fill="url(#linear-gradient)"/>
    <path id="减去_4_-_轮廓" data-name="减去 4 - 轮廓" d="M-2997.774-824.287a.721.721,0,0,1-.336-.08l-.006,0a.8.8,0,0,1-.379-.806v-11.86a2.541,2.541,0,0,1,.436-1.582,3.6,3.6,0,0,1,1.152-.882l.03-.013.806-.318a9.193,9.193,0,0,1,3.365-.635,9.219,9.219,0,0,1,2.967.489l1.247.423a.262.262,0,0,0,.166,0l1.555-.5a9.187,9.187,0,0,1,2.829-.446,9.176,9.176,0,0,1,3.289.607l1.05.4a2.926,2.926,0,0,1,1.13.867,2.335,2.335,0,0,1,.445,1.312v12.129a.789.789,0,0,1-.4.813l-.005,0a.748.748,0,0,1-.294.057,1.276,1.276,0,0,1-.383-.067l-.026-.01-2.5-1a5.715,5.715,0,0,0-2.138-.413,5.743,5.743,0,0,0-1.812.293l-2.1.7a1.261,1.261,0,0,1-.769.008l-2.534-.775a5.755,5.755,0,0,0-1.686-.253,5.72,5.72,0,0,0-2.172.426l-2.447,1A1.06,1.06,0,0,1-2997.774-824.287Zm1.281-14.3a2.562,2.562,0,0,0-.778.587,1.554,1.554,0,0,0-.226.917v11.673l2.26-.922a6.715,6.715,0,0,1,2.55-.5,6.754,6.754,0,0,1,1.979.3l2.537.776a.249.249,0,0,0,.158,0l2.106-.7a6.742,6.742,0,0,1,2.127-.344,6.711,6.711,0,0,1,2.511.485l2.241.9v-11.916a1.389,1.389,0,0,0-.27-.721,1.965,1.965,0,0,0-.69-.509l-1.022-.391a8.181,8.181,0,0,0-2.932-.541,8.189,8.189,0,0,0-2.522.4l-1.557.5a1.265,1.265,0,0,1-.794-.007l-1.247-.423a8.219,8.219,0,0,0-2.645-.436,8.194,8.194,0,0,0-3,.566Zm8.23,11.3a1.326,1.326,0,0,1-1.325-1.324v-7.55a1.327,1.327,0,0,1,1.325-1.325,1.327,1.327,0,0,1,1.325,1.325v7.55A1.326,1.326,0,0,1-2988.263-827.294Zm0-9.2a.326.326,0,0,0-.325.325v7.55a.325.325,0,0,0,.325.324.325.325,0,0,0,.325-.324v-7.55A.326.326,0,0,0-2988.263-836.494Z" transform="translate(3010.525 853.839)" fill="rgba(0,0,0,0)"/>
    <g id="组_68" data-name="组 68">
      <path id="路径_248" data-name="路径 248" d="M3.06,1.931V0L0,3.062H1.928A1.131,1.131,0,0,0,3.06,1.931Z" fill="url(#linear-gradient)"/>
      <path id="路径_248_-_轮廓" data-name="路径 248 - 轮廓" d="M1.928,3.562H-1.207L3.56-1.205V1.931A1.633,1.633,0,0,1,1.928,3.562Zm-.721-1h.721a.632.632,0,0,0,.632-.631V1.209Z" fill="rgba(0,0,0,0)"/>
      <path id="路径_249" data-name="路径 249" d="M22.314,0H4.094V1.908A2.168,2.168,0,0,1,1.911,4.067H0V23.95a1.712,1.712,0,0,0,1.71,1.7h9.115V19.817h-7.1a.684.684,0,1,1,0-1.368h7.1V15.572a2.627,2.627,0,0,1,.006-.335h-7.1a.685.685,0,0,1,0-1.369h7.755a4.018,4.018,0,0,1,.792-.524l.9-.353a9.728,9.728,0,0,1,6.675-.154l1.392.473a.858.858,0,0,0,.535,0l1.736-.561c.168-.054.339-.1.509-.141V1.705A1.712,1.712,0,0,0,22.314,0ZM20.3,10.655H3.729a.684.684,0,0,1,0-1.368H20.3a.684.684,0,0,1,0,1.368Zm0-4.584H9.152a.683.683,0,0,1,0-1.365H20.3a.683.683,0,0,1,0,1.365Z" fill="url(#linear-gradient)"/>
      <path id="路径_249_-_轮廓" data-name="路径 249 - 轮廓" d="M3.594-.5h18.72a2.21,2.21,0,0,1,2.21,2.2V13l-.478.126c-.133.035-.258.067-.378.106l-1.735.561a1.363,1.363,0,0,1-.847-.005l-1.395-.474a9.228,9.228,0,0,0-6.332.146l-.881.345a3.544,3.544,0,0,0-.666.444l-.141.123H3.729a.185.185,0,0,0,0,.369H11.37l-.041.538a2.215,2.215,0,0,0-.006.266v3.408h-7.6a.184.184,0,1,0,0,.368h7.6v6.838H1.71A2.21,2.21,0,0,1-.5,23.95V3.567H1.911A1.673,1.673,0,0,0,3.594,1.908Zm19.93,12.728V1.7A1.209,1.209,0,0,0,22.314.5H4.594V1.908A2.674,2.674,0,0,1,1.911,4.567H.5V23.95a1.209,1.209,0,0,0,1.21,1.2h8.615V20.317h-6.6a1.184,1.184,0,1,1,0-2.368h6.6V15.737h-6.6a1.185,1.185,0,0,1,0-2.369h7.576a4.606,4.606,0,0,1,.755-.475l.034-.015.9-.353a10.228,10.228,0,0,1,7.018-.162l1.392.473a.364.364,0,0,0,.221,0l1.735-.561C23.416,12.26,23.47,12.243,23.524,12.228ZM9.152,4.206H20.3a1.182,1.182,0,0,1,0,2.365H9.152a1.182,1.182,0,0,1,0-2.365ZM20.3,5.571a.183.183,0,0,0,0-.365H9.152a.183.183,0,0,0,0,.365ZM3.729,8.787H20.3a1.184,1.184,0,0,1,0,2.368H3.729a1.184,1.184,0,0,1,0-2.368ZM20.3,10.155a.184.184,0,0,0,0-.368H3.729a.184.184,0,1,0,0,.368Z" fill="rgba(0,0,0,0)"/>
    </g>
    <rect id="矩形_223" data-name="矩形 223" width="32" height="29.998" transform="translate(0 0.002)" fill="none"/>
  </g>
</svg>
