<svg xmlns="http://www.w3.org/2000/svg" xmlns:xlink="http://www.w3.org/1999/xlink" width="32" height="30" viewBox="0 0 32 30">
  <defs>
    <linearGradient id="linear-gradient" x1="0.5" x2="0.5" y2="1" gradientUnits="objectBoundingBox">
      <stop offset="0" stop-color="#8bc2ff"/>
      <stop offset="1" stop-color="#398fff"/>
    </linearGradient>
  </defs>
  <g id="application_default_-_3" data-name="application default - 3" transform="translate(-182 -44)">
    <rect id="矩形_143" data-name="矩形 143" width="32" height="30" transform="translate(182 44)" fill="#fff"/>
    <path id="订制应用" d="M77.575,99.8h-6.6a3.348,3.348,0,0,1-3.6-3.106V89.487l3.3-3.477c.032,0,.062-.009.093-.009h7.306a3.348,3.348,0,0,1,3.106,3.6v6.6A3.761,3.761,0,0,1,77.575,99.8Zm0-15.6H72.383c2-2.111,3.573-3.779,3.392-3.6a1.864,1.864,0,0,0-.2-2.157l-3.307-3.1s-1.315-.736-1.89-.138l-3,2.951V73.788A3.388,3.388,0,0,1,70.762,70.4h7.306A3.349,3.349,0,0,1,81.174,74v6.6A3.761,3.761,0,0,1,77.575,84.2Zm-22.8,0a3.349,3.349,0,0,1-3.6-3.106V73.788A3.388,3.388,0,0,1,54.563,70.4h7.305A3.349,3.349,0,0,1,64.974,74v6.512L61.224,84.2H54.775Zm10.2,7.819h0v0Zm-.853-1.51L58.971,92l1.387-5.184,9.68-9.9a1.742,1.742,0,0,1,1.594-.473l2.708,2.366a1.629,1.629,0,0,1-.152,1.875C73.882,80.978,64.121,90.509,64.121,90.509Zm10.064-9.823,0,0ZM54.563,86h4.831l-1.62,7.2,7.2-1.425V96.2a3.761,3.761,0,0,1-3.6,3.6h-6.6a3.348,3.348,0,0,1-3.6-3.106v-7.3A3.389,3.389,0,0,1,54.563,86Z" transform="translate(131.826 -26.1)" fill="url(#linear-gradient)"/>
    <rect id="矩形_188" data-name="矩形 188" width="32" height="30" transform="translate(182 44)" fill="none" opacity="0.58"/>
  </g>
</svg>
