<svg xmlns="http://www.w3.org/2000/svg" xmlns:xlink="http://www.w3.org/1999/xlink" width="32.003" height="30" viewBox="0 0 32.003 30"><defs><style>.a{stroke:rgba(0,0,0,0);fill:url(#a);}.b{clip-path:url(#b);}</style><linearGradient id="a" x1="0.5" x2="0.5" y2="1" gradientUnits="objectBoundingBox"><stop offset="0" stop-color="#9983fe"/><stop offset="1" stop-color="#7c66f6"/></linearGradient><clipPath id="b"><rect class="a" width="32.003" height="30" transform="translate(404 618)"/></clipPath></defs><g class="b" transform="translate(-404 -618)"><path class="a" d="M18.618,30H2a2,2,0,0,1-2-1.993V4.755H2.234A2.535,2.535,0,0,0,4.787,2.231V0h17.8a2,2,0,0,1,2,1.993V15.447A7.875,7.875,0,1,0,18.63,29.8q.369.085.751.136a.184.184,0,0,1,.071.016c.024.02.014.05-.056.05ZM3.56,22.374a.8.8,0,0,0,.8.8h5.2a.8.8,0,0,0,0-1.6H4.36A.8.8,0,0,0,3.56,22.374Zm0-5.357a.8.8,0,0,0,.8.8h6.2a.8.8,0,0,0,0-1.6h-6.2A.8.8,0,0,0,3.56,17.017Zm0-5.357a.8.8,0,0,0,.8.8H20.224a.8.8,0,1,0,0-1.6H4.36A.8.8,0,0,0,3.56,11.66ZM9.9,6.3a.8.8,0,0,0,.8.8h9.524a.8.8,0,0,0,0-1.6H10.7A.8.8,0,0,0,9.9,6.3ZM0,3.581,3.578,0V2.258A1.323,1.323,0,0,1,2.255,3.581Z" transform="translate(407.709 618)"/><path class="a" d="M-66,14.33" transform="translate(496.838 618)"/><path class="a" d="M-63.933,20.474a.23.23,0,0,0-.184-.155l-3.033-.442-1.361-2.741a.226.226,0,0,0-.2-.127.227.227,0,0,0-.205.128l-1.342,2.74-3.05.442a.226.226,0,0,0-.184.155.228.228,0,0,0,.057.234l2.21,2.16-.528,3a.227.227,0,0,0,.091.224.224.224,0,0,0,.134.044.227.227,0,0,0,.107-.027l2.71-1.445L-66,26.112a.23.23,0,0,0,.242-.017.229.229,0,0,0,.091-.224l-.524-3,2.206-2.16A.231.231,0,0,0-63.933,20.474Z" transform="translate(496.838 618)"/></g></svg>