<svg xmlns="http://www.w3.org/2000/svg" xmlns:xlink="http://www.w3.org/1999/xlink" width="32" height="30" viewBox="0 0 32 30">
  <defs>
    <linearGradient id="linear-gradient" x1="0.5" x2="0.5" y2="1" gradientUnits="objectBoundingBox">
      <stop offset="0" stop-color="#43e2f7"/>
      <stop offset="1" stop-color="#13d1f4"/>
    </linearGradient>
  </defs>
  <g id="application_default_-_2" data-name="application default - 2" transform="translate(-138 -44)">
    <rect id="矩形_142" data-name="矩形 142" width="32" height="30" transform="translate(138 44)" fill="#fff"/>
    <path id="资讯_1_" data-name="资讯 (1)" d="M31.576,24.682H7.648a4.039,4.039,0,0,0-4.036,4.036V50.2a4.039,4.039,0,0,0,4.036,4.036H31.576A4.039,4.039,0,0,0,35.612,50.2V28.7A4.023,4.023,0,0,0,31.576,24.682ZM9.6,31.218h1.914a1,1,0,0,1,0,2.008H9.6a1,1,0,1,1,0-2.008Zm9.018,14.342a1.682,1.682,0,0,1-1.667,1.667H10.262a1.682,1.682,0,0,1-1.667-1.667V38.854A1.682,1.682,0,0,1,9.068,37.7h0a1.6,1.6,0,0,1,1.156-.474H16.95a1.682,1.682,0,0,1,1.667,1.667Zm10.989-.379H23.6a1,1,0,0,1,0-2.008h6.006a1.011,1.011,0,0,1,1,1A.987.987,0,0,1,29.606,45.182Zm0-6.006H23.6a1,1,0,1,1,0-2.008h6.006a1.011,1.011,0,0,1,1,1A1,1,0,0,1,29.606,39.176Zm0-5.968H15.112a1,1,0,0,1,0-2.008H29.625a1,1,0,1,1-.019,2.008Z" transform="translate(134.388 19.618)" fill="url(#linear-gradient)"/>
    <rect id="矩形_188" data-name="矩形 188" width="32" height="30" transform="translate(138 44)" fill="none" opacity="0.58"/>
  </g>
</svg>
