<svg xmlns="http://www.w3.org/2000/svg" xmlns:xlink="http://www.w3.org/1999/xlink" width="32" height="30" viewBox="0 0 32 30"><defs><style>.a{stroke:rgba(0,0,0,0);fill:url(#a);}.b{clip-path:url(#b);}</style><linearGradient id="a" x1="0.5" x2="0.5" y2="1" gradientUnits="objectBoundingBox"><stop offset="0" stop-color="#8bc2ff"/><stop offset="1" stop-color="#398fff"/></linearGradient><clipPath id="b"><rect class="a" width="32" height="30" transform="translate(812 629)"/></clipPath></defs><g class="b" transform="translate(-812 -629)"><path class="a" d="M2,30a2,2,0,0,1-2-1.993V4.755H2.234A2.535,2.535,0,0,0,4.787,2.231V0h17.8a2,2,0,0,1,2,1.993V15.447A7.875,7.875,0,1,0,20.415,30ZM3.56,22.374a.8.8,0,0,0,.8.8h5.2a.8.8,0,0,0,0-1.6H4.36A.8.8,0,0,0,3.56,22.374Zm0-5.357a.8.8,0,0,0,.8.8h6.2a.8.8,0,0,0,0-1.6h-6.2A.8.8,0,0,0,3.56,17.017Zm0-5.357a.8.8,0,0,0,.8.8H20.224a.8.8,0,1,0,0-1.6H4.36A.8.8,0,0,0,3.56,11.66ZM9.9,6.3a.8.8,0,0,0,.8.8h9.524a.8.8,0,0,0,0-1.6H10.7A.8.8,0,0,0,9.9,6.3ZM0,3.581,3.578,0V2.258A1.323,1.323,0,0,1,2.255,3.581Z" transform="translate(815.708 629)"/><path class="a" d="M52-3.968a.834.834,0,0,1,.833-.834.835.835,0,0,1,.834.834,2.76,2.76,0,0,0,2.757,2.757,2.761,2.761,0,0,0,2.758-2.757.834.834,0,0,1,.833-.834.835.835,0,0,1,.834.834A4.43,4.43,0,0,1,56.424.456,4.429,4.429,0,0,1,52-3.968Zm3.59,1.148V-5.054H54.128a.825.825,0,0,1-.761-.509.823.823,0,0,1,.178-.9l2.294-2.3A.833.833,0,0,1,56.423-9a.827.827,0,0,1,.583.242l2.294,2.3a.826.826,0,0,1,.179.9.827.827,0,0,1-.763.509H57.258v2.234a.834.834,0,0,1-.834.833A.833.833,0,0,1,55.59-2.821Z" transform="translate(779.699 655.394)"/></g></svg>