<svg xmlns="http://www.w3.org/2000/svg" xmlns:xlink="http://www.w3.org/1999/xlink" width="32.076" height="31.117" viewBox="0 0 32.076 31.117"><defs><style>.a{stroke:rgba(0,0,0,0);fill:url(#a);}.b{fill:none;}</style><linearGradient id="a" x1="0.5" x2="0.5" y2="1" gradientUnits="objectBoundingBox"><stop offset="0" stop-color="#60d3af"/><stop offset="1" stop-color="#3ac6ae"/></linearGradient></defs><g transform="translate(0 0.52)"><path class="a" d="M-4462.019-366.806c-.107,0-.127-.115,0-.115a7.857,7.857,0,0,0,5.216-2.288h.2a1.2,1.2,0,0,1,1.2,1.2,1.2,1.2,0,0,1-1.2,1.2Zm-22.388,0a1.2,1.2,0,0,1-1.2-1.2,1.2,1.2,0,0,1,1.2-1.2h1.074V-386.05h-1.536a1.129,1.129,0,0,1-1.132-1.126,1.131,1.131,0,0,1,.548-.967l14.365-8.6a1.131,1.131,0,0,1,1.164,0l14.366,8.6a1.126,1.126,0,0,1,.387,1.546h0a1.131,1.131,0,0,1-.968.546h-1.536v5.009a7.856,7.856,0,0,0-4.708-1.565,7.875,7.875,0,0,0-2.9.556v-1.792a.829.829,0,0,0-.831-.827.829.829,0,0,0-.832.827v2.694a7.834,7.834,0,0,0-3.314,6.395,7.862,7.862,0,0,0,7.725,7.847c.1,0,.094.1,0,.1Zm8.68-17.037v11.736a.829.829,0,0,0,.831.829.829.829,0,0,0,.831-.829v-11.736a.828.828,0,0,0-.831-.827A.828.828,0,0,0-4475.727-383.843Zm13.9,13.2a.922.922,0,0,1-.27-.653.917.917,0,0,1,.271-.652l1.912-1.912h-7.158a.927.927,0,0,1-.923-.923.925.925,0,0,1,.923-.923h7.159l-1.917-1.918a.919.919,0,0,1,0-1.281.918.918,0,0,1,.665-.283.917.917,0,0,1,.645.265l3.5,3.5a.92.92,0,0,1-.011,1.3l-3.487,3.487a.92.92,0,0,1-.653.27A.923.923,0,0,1-4461.832-370.644Z" transform="translate(4486.505 396.903)"/><rect class="b" width="32" height="30"/></g></svg>