<svg xmlns="http://www.w3.org/2000/svg" xmlns:xlink="http://www.w3.org/1999/xlink" width="32" height="30" viewBox="0 0 32 30">
  <defs>
    <linearGradient id="linear-gradient" x1="0.5" x2="0.5" y2="1" gradientUnits="objectBoundingBox">
      <stop offset="0" stop-color="#9983fe"/>
      <stop offset="1" stop-color="#7c66f6"/>
    </linearGradient>
  </defs>
  <g id="application_default_-_1" data-name="application default - 1" transform="translate(-94 -44)">
    <rect id="矩形_141" data-name="矩形 141" width="32" height="30" transform="translate(94 44)" fill="#fff"/>
    <rect id="矩形_189" data-name="矩形 189" width="32" height="30" transform="translate(94 44)" fill="#fff"/>
    <path id="_002-资讯" data-name="002-资讯" d="M196.208,175.783v17.651a1.418,1.418,0,0,1-1.141,1.409,1.364,1.364,0,0,1-1.588-1.342V171.689a2.74,2.74,0,0,0-2.729-2.729h-19.06a2.74,2.74,0,0,0-2.729,2.729v23.154a4.11,4.11,0,0,0,4.094,4.094h21.812a4.1,4.1,0,0,0,4.094-4.094V178.49A2.755,2.755,0,0,0,196.208,175.783Zm-8.166,15.66H174.419a1.365,1.365,0,1,1,0-2.729h13.624a1.356,1.356,0,0,1,1.365,1.365,1.37,1.37,0,0,1-1.365,1.365Zm0-6.823H174.419a1.365,1.365,0,1,1,0-2.729h13.624a1.356,1.356,0,0,1,1.365,1.365,1.37,1.37,0,0,1-1.365,1.365Zm0-6.8H174.419a1.365,1.365,0,1,1,0-2.729h13.624a1.356,1.356,0,0,1,1.365,1.365,1.37,1.37,0,0,1-1.365,1.365Z" transform="translate(-73.96 -124.938)" fill="url(#linear-gradient)"/>
    <path id="_002-资讯-2" data-name="002-资讯" d="M196.208,175.783v17.651a1.418,1.418,0,0,1-1.141,1.409,1.364,1.364,0,0,1-1.588-1.342V171.689a2.74,2.74,0,0,0-2.729-2.729h-19.06a2.74,2.74,0,0,0-2.729,2.729v23.154a4.11,4.11,0,0,0,4.094,4.094h21.812a4.1,4.1,0,0,0,4.094-4.094V178.49A2.755,2.755,0,0,0,196.208,175.783Zm-8.166,15.66H174.419a1.365,1.365,0,1,1,0-2.729h13.624a1.356,1.356,0,0,1,1.365,1.365,1.37,1.37,0,0,1-1.365,1.365Zm0-6.823H174.419a1.365,1.365,0,1,1,0-2.729h13.624a1.356,1.356,0,0,1,1.365,1.365,1.37,1.37,0,0,1-1.365,1.365Zm0-6.8H174.419a1.365,1.365,0,1,1,0-2.729h13.624a1.356,1.356,0,0,1,1.365,1.365,1.37,1.37,0,0,1-1.365,1.365Z" transform="translate(-73.96 -124.938)" fill="url(#linear-gradient)"/>
    <rect id="矩形_188" data-name="矩形 188" width="32" height="30" transform="translate(94 44)" fill="none" opacity="0.58"/>
    <rect id="矩形_190" data-name="矩形 190" width="32" height="30" transform="translate(94 44)" fill="none" opacity="0.58"/>
  </g>
</svg>
