<svg xmlns="http://www.w3.org/2000/svg" xmlns:xlink="http://www.w3.org/1999/xlink" width="32" height="30" viewBox="0 0 32 30"><defs><style>.a{stroke:rgba(0,0,0,0);fill:url(#a);}.b{fill:none;}</style><linearGradient id="a" x1="0.5" x2="0.5" y2="1" gradientUnits="objectBoundingBox"><stop offset="0" stop-color="#9983fe"/><stop offset="1" stop-color="#7c66f6"/></linearGradient></defs><path class="a" d="M27.245.944H4.755A1.692,1.692,0,0,0,3.068,2.631V27.369a1.692,1.692,0,0,0,1.687,1.687h22.49a1.692,1.692,0,0,0,1.687-1.687V2.631A1.692,1.692,0,0,0,27.245.944ZM6.2,10.193a1.127,1.127,0,0,1,1.588,0l1.2,1.195L12.57,7.8a1.124,1.124,0,1,1,1.589,1.589L9.787,13.763a1.127,1.127,0,0,1-1.588,0l-2-1.982A1.127,1.127,0,0,1,6.2,10.193Zm7.956,7.632L9.787,22.2a1.129,1.129,0,0,1-1.588,0L6.217,20.215A1.123,1.123,0,0,1,7.8,18.626L9,19.821l3.584-3.584a1.129,1.129,0,0,1,1.589,0A1.143,1.143,0,0,1,14.159,17.825Zm11.123,2.732H17.963a.839.839,0,0,1,0-1.677h7.319a.839.839,0,0,1,0,1.677Zm0-8.434H17.963a.839.839,0,0,1,0-1.677h7.319a.839.839,0,0,1,0,1.677Z"/><rect class="b" width="32" height="30"/></svg>