<svg xmlns="http://www.w3.org/2000/svg" xmlns:xlink="http://www.w3.org/1999/xlink" width="32" height="30" viewBox="0 0 32 30"><defs><style>.a{fill:none;}.b{clip-path:url(#a);}.c{stroke:rgba(0,0,0,0);fill:url(#b);}</style><clipPath id="a"><rect class="a" width="32" height="30" transform="translate(1417 417)"/></clipPath><linearGradient id="b" x1="0.5" x2="0.5" y2="1" gradientUnits="objectBoundingBox"><stop offset="0" stop-color="#f5c36f"/><stop offset="1" stop-color="#fe9a2c"/></linearGradient></defs><g class="b" transform="translate(-1417 -417)"><g transform="translate(1317.772 417)"><path class="c" d="M-3344.4-389.813h5.625a2.813,2.813,0,0,1-2.813,2.813A2.812,2.812,0,0,1-3344.4-389.813Zm-7.5-1.875a1.868,1.868,0,0,1-1.872-1.874,1.873,1.873,0,0,1,1.872-1.875h.941v-9.375a9.379,9.379,0,0,1,7.5-9.188v-1.125a1.874,1.874,0,0,1,1.875-1.875,1.875,1.875,0,0,1,1.876,1.875V-414a9.38,9.38,0,0,1,7.5,9.188v9.375h.94a1.868,1.868,0,0,1,1.872,1.875,1.873,1.873,0,0,1-1.872,1.874Z" transform="translate(3456.813 417)"/></g></g></svg>