<svg xmlns="http://www.w3.org/2000/svg" xmlns:xlink="http://www.w3.org/1999/xlink" width="32" height="30" viewBox="0 0 32 30"><defs><style>.a{fill:none;}.b{clip-path:url(#a);}.c{fill:url(#b);}</style><clipPath id="a"><rect class="a" width="32" height="30" transform="translate(405 623)"/></clipPath><linearGradient id="b" x1="0.5" x2="0.5" y2="1" gradientUnits="objectBoundingBox"><stop offset="0" stop-color="#9983fe"/><stop offset="1" stop-color="#7c66f6"/></linearGradient></defs><g class="b" transform="translate(-405 -623)"><path class="c" d="M80.086,9.465,76.961,3.212A5.222,5.222,0,0,0,72.6.513H56.443a5.212,5.212,0,0,0-4.362,2.7L48.956,9.465a4.787,4.787,0,0,0,.687,5.062L62.123,28.4a3.181,3.181,0,0,0,4.8,0L79.4,14.527A4.784,4.784,0,0,0,80.086,9.465ZM69.763,20.117l-4.64,4.64a.919.919,0,0,1-1.3,0l-4.639-4.64a.915.915,0,1,1,1.293-1.294l3.994,3.994,3.993-3.994a.915.915,0,1,1,1.294,1.294Z" transform="translate(356.478 623)"/></g></svg>