<svg xmlns="http://www.w3.org/2000/svg" xmlns:xlink="http://www.w3.org/1999/xlink" width="32" height="30" viewBox="0 0 32 30"><defs><style>.a{stroke:rgba(0,0,0,0);fill:url(#a);}.b{clip-path:url(#b);}</style><linearGradient id="a" x1="0.5" x2="0.5" y2="1" gradientUnits="objectBoundingBox"><stop offset="0" stop-color="#f5c36f"/><stop offset="1" stop-color="#fe9a2c"/></linearGradient><clipPath id="b"><rect class="a" width="32" height="30" transform="translate(1835 236.003)"/></clipPath></defs><g class="b" transform="translate(-1835 -236.003)"><g transform="translate(1750.022 236)"><path class="a" d="M100.978,24.418a10.173,10.173,0,1,0,0-20.347h0a10.173,10.173,0,1,0,0,20.347Zm4.84-11.125a1.212,1.212,0,1,1-1.212,1.212A1.212,1.212,0,0,1,105.818,13.293Zm-9.443,2.424a1.212,1.212,0,1,1,1.212-1.212A1.212,1.212,0,0,1,96.375,15.717Zm3.51-1.212a1.211,1.211,0,1,1,1.211,1.212A1.212,1.212,0,0,1,99.885,14.505Z"/><path class="a" d="M100.876.075a14.326,14.326,0,0,0-9.5,25.048,1,1,0,0,0,1.327-1.5,12.332,12.332,0,1,1,10.441,2.881,2.412,2.412,0,1,0,.068,2.011A14.317,14.317,0,0,0,100.876.075Z"/></g></g></svg>