<svg xmlns="http://www.w3.org/2000/svg" xmlns:xlink="http://www.w3.org/1999/xlink" width="32" height="30" viewBox="0 0 32 30">
  <defs>
    <linearGradient id="linear-gradient" x1="0.5" x2="0.5" y2="1" gradientUnits="objectBoundingBox">
      <stop offset="0" stop-color="#f5c36f"/>
      <stop offset="1" stop-color="#fe9a2c"/>
    </linearGradient>
  </defs>
  <g id="application_default_-_16" data-name="application default - 16" transform="translate(-94 -170)">
    <rect id="矩形_156" data-name="矩形 156" width="32" height="30" transform="translate(94 170)" fill="#fff"/>
    <path id="联合_42" data-name="联合 42" d="M10.785,28.91a7.482,7.482,0,0,0,2.277-3.458,8.586,8.586,0,0,0,2.925.5,9.034,9.034,0,0,0,2.925-.5A7.482,7.482,0,0,0,21.19,28.91a12.964,12.964,0,0,1-10.4,0Zm12.576-.778a5.65,5.65,0,0,1-2.12-7.781,5.8,5.8,0,0,1,7.864-2.092,5.654,5.654,0,0,1,2.12,7.781,5.8,5.8,0,0,1-7.864,2.092ZM.767,26.04a5.665,5.665,0,0,1,2.119-7.781,5.8,5.8,0,0,1,7.864,2.092,5.653,5.653,0,0,1-2.119,7.781A5.8,5.8,0,0,1,.767,26.04Zm25.467-10.41a7.645,7.645,0,0,0-1.541.156,8.562,8.562,0,0,0-2.925-5.135,7.5,7.5,0,0,0,1.786-3.77A12.691,12.691,0,0,1,28.862,16.1,7.581,7.581,0,0,0,26.234,15.631ZM8.421,6.882a7.524,7.524,0,0,0,1.786,3.753,8.742,8.742,0,0,0-2.925,5.152,7.641,7.641,0,0,0-1.541-.156,8.01,8.01,0,0,0-2.627.467A12.689,12.689,0,0,1,8.421,6.882Zm1.8-1.193a5.763,5.763,0,0,1,11.525,0,5.763,5.763,0,0,1-11.525,0Z" transform="translate(94 170)" fill="url(#linear-gradient)"/>
    <rect id="矩形_188" data-name="矩形 188" width="32" height="30" transform="translate(94 170)" fill="none" opacity="0.58"/>
  </g>
</svg>
