<svg xmlns="http://www.w3.org/2000/svg" xmlns:xlink="http://www.w3.org/1999/xlink" width="32" height="30" viewBox="0 0 32 30">
  <defs>
    <linearGradient id="linear-gradient" x1="0.5" x2="0.5" y2="1" gradientUnits="objectBoundingBox">
      <stop offset="0" stop-color="#9983fe"/>
      <stop offset="1" stop-color="#7c66f6"/>
    </linearGradient>
  </defs>
  <g id="application_default_-_7" data-name="application default - 7" transform="translate(-138 -86)">
    <rect id="矩形_147" data-name="矩形 147" width="32" height="30" transform="translate(138 86)" fill="#fff"/>
    <path id="新闻资讯" d="M87.3,77a2.741,2.741,0,0,0-2.741,2.741v24.38l-1.567.052-.07-22.161H81.741A2.741,2.741,0,0,0,79,84.754v18.968a2.741,2.741,0,0,0,2.727,2.741l24.518.128A2.741,2.741,0,0,0,109,103.864V79.741A2.741,2.741,0,0,0,106.259,77Zm4.112,20.912H103.87a1.214,1.214,0,0,1,0,2.428H91.415a1.214,1.214,0,0,1,0-2.428Zm0-4.778H103.87a1.214,1.214,0,0,1,0,2.428H91.415a1.214,1.214,0,0,1,0-2.428Zm7.4-9.79h5.092a1.175,1.175,0,0,1,1.175,1.175V89.61a1.175,1.175,0,0,1-1.175,1.175H98.817a1.175,1.175,0,0,1-1.175-1.175V84.519A1.175,1.175,0,0,1,98.817,83.344Zm-7.4,5.013h3.447a1.214,1.214,0,0,1,0,2.428H91.415a1.214,1.214,0,0,1,0-2.428Zm0-5.013h3.447a1.214,1.214,0,0,1,0,2.428H91.415a1.214,1.214,0,0,1,0-2.428Z" transform="translate(60 9.278)" fill="url(#linear-gradient)"/>
    <rect id="矩形_188" data-name="矩形 188" width="32" height="30" transform="translate(138 86)" fill="none" opacity="0.58"/>
  </g>
</svg>
