<?xml version="1.0" standalone="no"?><!DOCTYPE svg PUBLIC "-//W3C//DTD SVG 1.1//EN" "http://www.w3.org/Graphics/SVG/1.1/DTD/svg11.dtd"><svg class="icon" width="200px" height="158.02px" viewBox="0 0 1296 1024" version="1.1" xmlns="http://www.w3.org/2000/svg"><path d="M989.68716998 472.22162266c0-116.424518-116.424518-211.212621-247.190888-211.212621-138.473055 0-247.520586 94.870528-247.520586 211.212621 0 116.548155 109.047531 211.212621 247.520586 211.212622 29.013402 0 58.274077-7.335775 87.369904-14.589126l79.786855 43.684952-21.966113-72.739566c58.438926-43.849801 102.000241-102.000241 102.000242-167.568882z m-323.804403-32.310379a32.969775 32.969775 0 1 1 32.969775-32.969775 32.969775 32.969775 0 0 1-32.969775 32.969775z m160.150682-0.247274a32.969775 32.969775 0 1 1 32.969775-32.969775 32.969775 32.969775 0 0 1-32.969775 32.969775z m0 0" fill="#00C800" /><path d="M458.42045798 42.70787866C298.43462398 42.70787866 167.37976898 151.75540966 167.37976898 290.18725266c0 79.951704 43.602527 145.561557 116.424518 196.499859l-29.095827 87.575965 101.752968-51.020727c36.431601 7.212138 65.609852 14.589125 102.000242 14.589126 9.149113 0 18.215801-0.412122 27.200064-1.153942a216.611422 216.611422 0 0 1-9.066688-61.035297c0-127.180907 109.21238-230.376303 247.438162-230.376302a242.698756 242.698756 0 0 1 28.024308 1.730913C726.83563898 129.78929666 601.46806898 42.66666666 458.42045798 42.66666666zM360.66507498 242.42229066a39.56373 39.56373 0 1 1 39.56373-39.56373 39.574033 39.574033 0 0 1-39.56373 39.56373z m203.258663 0a39.56373 39.56373 0 1 1 39.56373-39.56373 39.574033 39.574033 0 0 1-39.56373 39.56373z m0 0" fill="#00C800" /></svg>