<svg xmlns="http://www.w3.org/2000/svg" xmlns:xlink="http://www.w3.org/1999/xlink" fill="none" version="1.1" width="56.2392578125" height="56.2392578125" viewBox="0 0 56.2392578125 56.2392578125"><g style="mix-blend-mode:passthrough"><g><path d="M55.3536,44.7257C55.3536,44.7257,0.885658,44.7257,0.885658,44.7257C0.398546,44.7257,0,44.3272,0,43.8401C0,43.8401,0,0.885658,0,0.885658C0,0.398546,0.398546,0,0.885658,0C0.885658,0,55.3536,0,55.3536,0C55.8408,0,56.2393,0.398546,56.2393,0.885658C56.2393,0.885658,56.2393,43.8401,56.2393,43.8401C56.2393,44.3272,55.8408,44.7257,55.3536,44.7257C55.3536,44.7257,55.3536,44.7257,55.3536,44.7257ZM1.77132,42.9544C1.77132,42.9544,54.468,42.9544,54.468,42.9544C54.468,42.9544,54.468,1.77132,54.468,1.77132C54.468,1.77132,1.77132,1.77132,1.77132,1.77132C1.77132,1.77132,1.77132,42.9544,1.77132,42.9544C1.77132,42.9544,1.77132,42.9544,1.77132,42.9544Z" fill="#274697" fill-opacity="1"/></g><g><path d="M50.21685087890625,35.55918382568359C50.21685087890625,35.55918382568359,6.02247587890625,35.55918382568359,6.02247587890625,35.55918382568359C5.75677487890625,35.55918382568359,5.57965087890625,35.382083825683594,5.57965087890625,35.1163838256836C5.57965087890625,35.1163838256836,5.57965087890625,6.465308825683594,5.57965087890625,6.465308825683594C5.57965087890625,6.199607825683594,5.75677487890625,6.022483825683594,6.02247587890625,6.022483825683594C6.02247587890625,6.022483825683594,50.21685087890625,6.022483825683594,50.21685087890625,6.022483825683594C50.48255087890625,6.022483825683594,50.65965087890625,6.199607825683594,50.65965087890625,6.465308825683594C50.65965087890625,6.465308825683594,50.65965087890625,35.1163838256836,50.65965087890625,35.1163838256836C50.65965087890625,35.337783825683594,50.48255087890625,35.55918382568359,50.21685087890625,35.55918382568359C50.21685087890625,35.55918382568359,50.21685087890625,35.55918382568359,50.21685087890625,35.55918382568359ZM6.46530887890625,34.67358382568359C6.46530887890625,34.67358382568359,49.77395087890625,34.67358382568359,49.77395087890625,34.67358382568359C49.77395087890625,34.67358382568359,49.77395087890625,6.908141825683594,49.77395087890625,6.908141825683594C49.77395087890625,6.908141825683594,6.46530887890625,6.908141825683594,6.46530887890625,6.908141825683594C6.46530887890625,6.908141825683594,6.46530887890625,34.67358382568359,6.46530887890625,34.67358382568359C6.46530887890625,34.67358382568359,6.46530887890625,34.67358382568359,6.46530887890625,34.67358382568359ZM37.81765087890625,51.14678382568359C37.81765087890625,51.14678382568359,18.42165087890625,51.14678382568359,18.42165087890625,51.14678382568359C17.93455087890625,51.14678382568359,17.536050878906252,50.7481838256836,17.536050878906252,50.26108382568359C17.536050878906252,50.26108382568359,17.536050878906252,43.84008382568359,17.536050878906252,43.84008382568359C17.536050878906252,43.352983825683594,17.93455087890625,42.95438382568359,18.42165087890625,42.95438382568359C18.42165087890625,42.95438382568359,37.86185087890625,42.95438382568359,37.86185087890625,42.95438382568359C38.34895087890625,42.95438382568359,38.74755087890625,43.352983825683594,38.74755087890625,43.84008382568359C38.74755087890625,43.84008382568359,38.74755087890625,50.26108382568359,38.74755087890625,50.26108382568359C38.70325087890625,50.7481838256836,38.30475087890625,51.14678382568359,37.81765087890625,51.14678382568359C37.81765087890625,51.14678382568359,37.81765087890625,51.14678382568359,37.81765087890625,51.14678382568359ZM19.30735087890625,49.375483825683595C19.30735087890625,49.375483825683595,36.97625087890625,49.375483825683595,36.97625087890625,49.375483825683595C36.97625087890625,49.375483825683595,36.97625087890625,44.72578382568359,36.97625087890625,44.72578382568359C36.97625087890625,44.72578382568359,19.30735087890625,44.72578382568359,19.30735087890625,44.72578382568359C19.30735087890625,44.72578382568359,19.30735087890625,49.375483825683595,19.30735087890625,49.375483825683595C19.30735087890625,49.375483825683595,19.30735087890625,49.375483825683595,19.30735087890625,49.375483825683595Z" fill="#274697" fill-opacity="1"/></g><g><path d="M44.28292448730469,56.239341015625C44.28292448730469,56.239341015625,11.956375487304687,56.239341015625,11.956375487304687,56.239341015625C11.469268487304687,56.239341015625,11.070724487304688,55.840741015625,11.070724487304688,55.353641015625C11.070724487304688,55.353641015625,11.070724487304688,50.261141015625,11.070724487304688,50.261141015625C11.070724487304688,49.774041015625,11.469268487304687,49.375441015625,11.956375487304687,49.375441015625C11.956375487304687,49.375441015625,44.28292448730469,49.375441015625,44.28292448730469,49.375441015625C44.77002448730469,49.375441015625,45.16852448730469,49.774041015625,45.16852448730469,50.261141015625C45.16852448730469,50.261141015625,45.16852448730469,55.353641015625,45.16852448730469,55.353641015625C45.16852448730469,55.840741015625,44.77002448730469,56.239341015625,44.28292448730469,56.239341015625C44.28292448730469,56.239341015625,44.28292448730469,56.239341015625,44.28292448730469,56.239341015625ZM12.842044487304687,54.468041015625C12.842044487304687,54.468041015625,43.39722448730469,54.468041015625,43.39722448730469,54.468041015625C43.39722448730469,54.468041015625,43.39722448730469,51.146741015625,43.39722448730469,51.146741015625C43.39722448730469,51.146741015625,12.842044487304687,51.146741015625,12.842044487304687,51.146741015625C12.842044487304687,51.146741015625,12.842044487304687,54.468041015625,12.842044487304687,54.468041015625C12.842044487304687,54.468041015625,12.842044487304687,54.468041015625,12.842044487304687,54.468041015625ZM42.77732448730469,30.776641015625C42.73302448730469,30.776641015625,42.68872448730468,30.776641015625,42.64442448730469,30.732341015625C42.51162448730469,30.688141015625,42.42302448730469,30.599541015625,42.37872448730469,30.466641015625C42.37872448730469,30.466641015625,40.917424487304686,26.658341015625,40.917424487304686,26.658341015625C40.917424487304686,26.658341015625,39.54462448730469,29.049641015625,39.54462448730469,29.049641015625C39.45602448730469,29.226741015625,39.234624487304686,29.315341015625,39.01322448730468,29.271041015625C38.83612448730469,29.226741015625,38.703324487304684,29.005341015625,38.703324487304684,28.828141015625C38.703324487304684,28.828141015625,39.54462448730469,19.174481015625,39.54462448730469,19.174481015625C39.54462448730469,18.997371015625,39.67752448730469,18.864551015625,39.81032448730468,18.820251015625C39.94322448730469,18.775951015625,40.120324487304686,18.775951015625,40.25312448730469,18.864551015625C40.25312448730469,18.864551015625,46.85132448730469,24.178441015624998,46.85132448730469,24.178441015624998C46.98422448730469,24.311341015625,47.07272448730469,24.488441015625,46.98422448730469,24.709841015625003C46.89562448730469,24.886941015625,46.718524487304684,25.019841015624998,46.541324487304685,24.975541015624998C46.541324487304685,24.975541015624998,44.06152448730469,24.754141015625002,44.06152448730469,24.754141015625002C44.06152448730469,24.754141015625002,45.61142448730469,28.783941015625,45.61142448730469,28.783941015625C45.699924487304685,29.005341015625,45.61142448730469,29.226741015625,45.43422448730469,29.315341015625C45.43422448730469,29.315341015625,42.998724487304685,30.732341015625,42.998724487304685,30.732341015625C42.910124487304685,30.732341015625,42.86592448730469,30.776641015625,42.77732448730469,30.776641015625C42.77732448730469,30.776641015625,42.77732448730469,30.776641015625,42.77732448730469,30.776641015625ZM40.961724487304686,25.196941015625C40.961724487304686,25.196941015625,41.006024487304686,25.196941015625,40.961724487304686,25.196941015625C41.18312448730469,25.196941015625,41.315924487304684,25.329841015625,41.36022448730469,25.462741015625C41.36022448730469,25.462741015625,42.998724487304685,29.669541015625,42.998724487304685,29.669541015625C42.998724487304685,29.669541015625,44.637224487304685,28.695341015625,44.637224487304685,28.695341015625C44.637224487304685,28.695341015625,42.95442448730469,24.355541015625,42.95442448730469,24.355541015625C42.910124487304685,24.222741015624997,42.910124487304685,24.045641015625,42.998724487304685,23.912841015625C43.087324487304684,23.779941015625,43.22012448730469,23.735641015625,43.39722448730469,23.735641015625C43.39722448730469,23.735641015625,45.12432448730469,23.868541015625,45.12432448730469,23.868541015625C45.12432448730469,23.868541015625,40.29742448730469,19.971621015625,40.29742448730469,19.971621015625C40.29742448730469,19.971621015625,39.721724487304684,26.791141015625,39.721724487304684,26.791141015625C39.721724487304684,26.791141015625,40.56312448730469,25.329841015625,40.56312448730469,25.329841015625C40.65172448730469,25.285541015625,40.78452448730469,25.196941015625,40.961724487304686,25.196941015625C40.961724487304686,25.196941015625,40.961724487304686,25.196941015625,40.961724487304686,25.196941015625ZM44.592924487304685,13.727707015625C44.592924487304685,13.727707015625,11.646408487304688,13.727707015625,11.646408487304688,13.727707015625C11.380691487304688,13.727707015625,11.203582487304688,13.550583015625,11.203582487304688,13.284882015625C11.203582487304688,13.019165015625,11.380691487304688,12.842041015625,11.646408487304688,12.842041015625C11.646408487304688,12.842041015625,44.637224487304685,12.842041015625,44.637224487304685,12.842041015625C44.90292448730469,12.842041015625,45.08002448730469,13.019165015625,45.08002448730469,13.284882015625C45.08002448730469,13.550583015625,44.85862448730469,13.727707015625,44.592924487304685,13.727707015625C44.592924487304685,13.727707015625,44.592924487304685,13.727707015625,44.592924487304685,13.727707015625ZM34.053524487304685,21.122951015625C34.053524487304685,21.122951015625,11.646408487304688,21.122951015625,11.646408487304688,21.122951015625C11.380691487304688,21.122951015625,11.203582487304688,20.945821015625,11.203582487304688,20.680131015625C11.203582487304688,20.414411015625,11.380691487304688,20.237301015625,11.646408487304688,20.237301015625C11.646408487304688,20.237301015625,34.053524487304685,20.237301015625,34.053524487304685,20.237301015625C34.31922448730469,20.237301015625,34.49642448730469,20.414411015625,34.49642448730469,20.680131015625C34.49642448730469,20.945821015625,34.27502448730469,21.122951015625,34.053524487304685,21.122951015625C34.053524487304685,21.122951015625,34.053524487304685,21.122951015625,34.053524487304685,21.122951015625ZM34.053524487304685,28.739641015625C34.053524487304685,28.739641015625,11.646408487304688,28.739641015625,11.646408487304688,28.739641015625C11.380691487304688,28.739641015625,11.203582487304688,28.562441015624998,11.203582487304688,28.296841015625C11.203582487304688,28.031041015625,11.380691487304688,27.853941015625,11.646408487304688,27.853941015625C11.646408487304688,27.853941015625,34.053524487304685,27.853941015625,34.053524487304685,27.853941015625C34.31922448730469,27.853941015625,34.49642448730469,28.031041015625,34.49642448730469,28.296841015625C34.49642448730469,28.562441015624998,34.27502448730469,28.739641015625,34.053524487304685,28.739641015625C34.053524487304685,28.739641015625,34.053524487304685,28.739641015625,34.053524487304685,28.739641015625ZM29.669524487304688,39.898941015625C29.669524487304688,39.898941015625,26.56972448730469,39.898941015625,26.56972448730469,39.898941015625C26.304024487304687,39.898941015625,26.126924487304688,39.721741015625,26.126924487304688,39.456141015625C26.126924487304688,39.190341015624995,26.304024487304687,39.013241015625,26.56972448730469,39.013241015625C26.56972448730469,39.013241015625,29.669524487304688,39.013241015625,29.669524487304688,39.013241015625C29.935224487304687,39.013241015625,30.112424487304686,39.190341015624995,30.112424487304686,39.456141015625C30.112424487304686,39.721741015625,29.891024487304687,39.898941015625,29.669524487304688,39.898941015625C29.669524487304688,39.898941015625,29.669524487304688,39.898941015625,29.669524487304688,39.898941015625Z" fill="#274697" fill-opacity="1"/></g></g></svg>