<svg xmlns="http://www.w3.org/2000/svg" xmlns:xlink="http://www.w3.org/1999/xlink" fill="none" version="1.1" width="45.376953125" height="56.2393798828125" viewBox="0 0 45.376953125 56.2393798828125"><g style="mix-blend-mode:passthrough"><g><path d="M6.717423669204712,16.473264814453124C6.717423669204712,16.473264814453124,3.086214669204712,16.473264814453124,3.086214669204712,16.473264814453124C2.599092669204712,16.473264814453124,2.2005636692047403,16.074674814453125,2.2005636692047403,15.587585814453124C2.2005636692047403,15.100463814453125,2.599092669204712,14.701934814453125,3.086214669204712,14.701934814453125C3.086214669204712,14.701934814453125,6.717423669204712,14.701934814453125,6.717423669204712,14.701934814453125C7.204533669204712,14.701934814453125,7.603073669204712,15.100463814453125,7.603073669204712,15.587585814453124C7.603073669204712,16.074674814453125,7.204533669204712,16.473264814453124,6.717423669204712,16.473264814453124C6.717423669204712,16.473264814453124,6.717423669204712,16.473264814453124,6.717423669204712,16.473264814453124Z" fill="#274697" fill-opacity="1"/></g><g><path d="M3.13049,16.473238983255627C3.13049,16.473238983255627,3.04193,16.473238983255627,3.04193,16.473238983255627C0.783488,16.340438983255623,-0.190725,13.550538983255624,0.0306799,8.015208983255626C0.163538,4.8711189832556245,1.13777,2.125578983255625,2.5548,0.8413759832556248C3.17477,0.2656989832556248,3.92759,0.000001383255624771984,4.63612,0.04428339325562477C5.12322,0.08856728325562477,5.47749,0.4871129832556248,5.47749,0.9742259832556248C5.43319,1.4613389832556247,5.03465,1.8155989832556247,4.54754,1.8155989832556247C4.28184,1.8155989832556247,4.01614,1.9041689832556248,3.75045,2.1698689832556246C2.8648,2.966958983255625,1.93485,5.136818983255624,1.802,8.103778983255625C1.62486,12.487738983255625,2.28912,14.569038983255625,3.08621,14.701938983255625C3.26333,14.569038983255625,4.06043,13.594838983255626,3.39617,8.900868983255625C3.35191,8.635168983255625,3.44047,8.369468983255624,3.61761,8.192338983255624C3.79473,8.015208983255626,4.01614,7.8823589832556245,4.28184,7.8823589832556245C4.28184,7.8823589832556245,7.51451,7.8823589832556245,7.51451,7.8823589832556245C8.00161,7.8823589832556245,8.40016,8.280908983255625,8.40016,8.768018983255624C8.40016,9.255128983255625,8.00161,9.653678983255626,7.51451,9.653678983255626C7.51451,9.653678983255626,5.30035,9.653678983255626,5.30035,9.653678983255626C5.65461,12.886338983255625,5.34463,14.923338983255626,4.41468,15.897538983255625C3.92759,16.340438983255623,3.48477,16.473238983255627,3.13049,16.473238983255627C3.13049,16.473238983255627,3.13049,16.473238983255627,3.13049,16.473238983255627ZM31.8701,41.58163898325562C31.8701,41.58163898325562,9.81721,41.58163898325562,9.81721,41.58163898325562C9.55152,41.58163898325562,9.37438,41.40453898325563,9.37438,41.138838983255624C9.37438,40.87313898325562,9.55152,40.696038983255626,9.81721,40.696038983255626C9.81721,40.696038983255626,31.8701,40.696038983255626,31.8701,40.696038983255626C32.1358,40.696038983255626,32.313,40.87313898325562,32.313,41.138838983255624C32.313,41.40453898325563,32.0915,41.58163898325562,31.8701,41.58163898325562C31.8701,41.58163898325562,31.8701,41.58163898325562,31.8701,41.58163898325562ZM31.8701,36.312038983255626C31.8701,36.312038983255626,9.81721,36.312038983255626,9.81721,36.312038983255626C9.55152,36.312038983255626,9.37438,36.13483898325563,9.37438,35.869138983255624C9.37438,35.60343898325562,9.55152,35.426338983255626,9.81721,35.426338983255626C9.81721,35.426338983255626,31.8701,35.426338983255626,31.8701,35.426338983255626C32.1358,35.426338983255626,32.313,35.60343898325562,32.313,35.869138983255624C32.313,36.13483898325563,32.0915,36.312038983255626,31.8701,36.312038983255626C31.8701,36.312038983255626,31.8701,36.312038983255626,31.8701,36.312038983255626ZM32.6229,31.086638983255625C32.6229,31.086638983255625,10.57,31.086638983255625,10.57,31.086638983255625C10.3043,31.086638983255625,10.1272,30.909438983255626,10.1272,30.643738983255624C10.1272,30.378038983255625,10.3043,30.200938983255625,10.57,30.200938983255625C10.57,30.200938983255625,32.6229,30.200938983255625,32.6229,30.200938983255625C32.8886,30.200938983255625,33.0657,30.378038983255625,33.0657,30.643738983255624C33.0657,30.909438983255626,32.8443,31.086638983255625,32.6229,31.086638983255625C32.6229,31.086638983255625,32.6229,31.086638983255625,32.6229,31.086638983255625ZM33.73,25.816938983255625C33.73,25.816938983255625,11.6771,25.816938983255625,11.6771,25.816938983255625C11.4114,25.816938983255625,11.2343,25.639838983255625,11.2343,25.374138983255623C11.2343,25.108438983255624,11.4114,24.931238983255625,11.6771,24.931238983255625C11.6771,24.931238983255625,33.73,24.931238983255625,33.73,24.931238983255625C33.9957,24.931238983255625,34.1728,25.108438983255624,34.1728,25.374138983255623C34.1728,25.639838983255625,33.9514,25.816938983255625,33.73,25.816938983255625C33.73,25.816938983255625,33.73,25.816938983255625,33.73,25.816938983255625ZM35.5013,20.370138983255625C35.5013,20.370138983255625,12.6956,20.370138983255625,12.6956,20.370138983255625C12.5628,20.370138983255625,12.4299,20.281538983255626,12.3413,20.193038983255626C12.2528,20.060138983255626,12.2528,19.927338983255623,12.2971,19.794438983255624C14.7769,13.373438983255625,13.537,6.908138983255625,13.537,6.819568983255625C13.4927,6.686718983255624,13.537,6.553868983255625,13.6255,6.465308983255625C13.7141,6.376738983255625,13.847,6.288178983255625,13.9798,6.288178983255625C13.9798,6.288178983255625,36.0327,6.288178983255625,36.0327,6.288178983255625C36.2098,6.288178983255625,36.387,6.421018983255625,36.4313,6.598158983255625C38.3354,11.912138983255625,35.9884,19.750138983255624,35.8999,20.104438983255626C35.8556,20.237338983255626,35.6784,20.370138983255625,35.5013,20.370138983255625C35.5013,20.370138983255625,35.5013,20.370138983255625,35.5013,20.370138983255625ZM13.3598,19.484438983255625C13.3598,19.484438983255625,35.147,19.484438983255625,35.147,19.484438983255625C35.5456,17.978838983255624,37.1398,11.602138983255625,35.6784,7.173838983255624C35.6784,7.173838983255624,14.5112,7.173838983255624,14.5112,7.173838983255624C14.7326,8.812298983255625,15.264,14.081938983255625,13.3598,19.484438983255625C13.3598,19.484438983255625,13.3598,19.484438983255625,13.3598,19.484438983255625ZM40.9038,56.23933898325563C40.9038,56.23933898325563,7.73591,56.23933898325563,7.73591,56.23933898325563C7.2488,56.23933898325563,6.85026,55.840738983255626,6.85026,55.35363898325563C6.85026,54.86653898325562,7.2488,54.468038983255624,7.73591,54.468038983255624C7.86877,54.468038983255624,8.13445,54.468038983255624,8.35588,53.93663898325563C9.0644,52.342438983255626,8.35588,48.88833898325562,7.07166,47.47133898325563C6.85026,47.205638983255625,6.7617,46.85133898325562,6.89454,46.49703898325563C7.02738,46.18713898325562,7.33738,45.96563898325562,7.69163,45.96563898325562C7.69163,45.96563898325562,40.8595,45.96563898325562,40.8595,45.96563898325562C43.3394,45.96563898325562,45.3764,48.268338983255624,45.3764,51.10253898325563C45.4207,53.93663898325563,43.3837,56.23933898325563,40.9038,56.23933898325563C40.9038,56.23933898325563,40.9038,56.23933898325563,40.9038,56.23933898325563ZM10.0829,54.468038983255624C10.0829,54.468038983255624,40.9038,54.468038983255624,40.9038,54.468038983255624C42.4095,54.468038983255624,43.6494,52.96233898325563,43.6494,51.10253898325563C43.6494,49.242638983255624,42.4095,47.73703898325562,40.9038,47.73703898325562C40.9038,47.73703898325562,9.37438,47.73703898325562,9.37438,47.73703898325562C10.3929,49.818238983255625,10.7472,52.696638983255625,10.0829,54.468038983255624C10.0829,54.468038983255624,10.0829,54.468038983255624,10.0829,54.468038983255624Z" fill="#274697" fill-opacity="1"/></g><g><path d="M15.795366079330444,56.2393C15.795366079330444,56.2393,7.691636079330444,56.2393,7.691636079330444,56.2393C5.123246079330444,56.2393,3.2633660793304444,54.3351,2.4219690793304443,50.9254C0.38496607933044436,42.6002,2.5548120793304445,32.1494,4.414706079330444,22.9386C6.363146079330444,13.3734,8.178746079330445,4.33973,4.281846079330444,1.59418C3.9718760793304444,1.37277,3.8390260793304445,0.974224,3.9275860793304442,0.619961C4.060446079330444,0.265697,4.3704060793304444,0,4.768956079330444,0C4.768956079330444,0,38.202566079330445,0,38.202566079330445,0C39.97386607933044,0,41.56806607933044,1.2842,42.18806607933045,3.14409C44.845066079330444,11.6021,43.02946607933045,20.1044,41.25806607933045,28.2968C39.929666079330445,34.3635,38.601066079330444,40.6517,39.132566079330445,46.7628C39.17676607933044,47.2499,38.82256607933044,47.6927,38.335466079330445,47.737C37.84836607933045,47.7813,37.405466079330445,47.427,37.361166079330445,46.9399C36.82976607933045,40.5631,38.202566079330445,34.1421,39.531066079330444,27.9425C41.25806607933045,19.9716,43.02946607933045,11.6907,40.50526607933045,3.71976C40.15106607933044,2.5684,39.22106607933044,1.81559,38.202566079330445,1.81559C38.202566079330445,1.81559,6.850266079330444,1.81559,6.850266079330444,1.81559C9.640096079330444,6.02247,8.001616079330445,14.1262,6.141736079330444,23.3371C4.281846079330444,32.3708,2.2005640793304444,42.6002,4.149006079330444,50.5711C4.768956079330444,53.1838,5.964616079330444,54.5123,7.691636079330444,54.5123C7.691636079330444,54.5123,15.795366079330444,54.5123,15.795366079330444,54.5123C16.282566079330444,54.5123,16.681066079330442,54.9108,16.681066079330442,55.3979C16.681066079330442,55.885,16.282566079330444,56.2393,15.795366079330444,56.2393C15.795366079330444,56.2393,15.795366079330444,56.2393,15.795366079330444,56.2393Z" fill="#274697" fill-opacity="1"/></g><g><path d="M41.03667900695801,53.36095919921875C40.94807900695801,53.36095919921875,40.81527900695801,53.31664919921875,40.72667900695801,53.27239919921875C40.54957900695801,53.09521919921875,40.505279006958006,52.82952919921875,40.68237900695801,52.65240919921875C41.213779006958006,52.03252919921875,41.43517900695801,51.45678919921875,41.390979006958005,50.92541919921875C41.34667900695801,50.39397919921875,41.03667900695801,50.03972919921875,40.85957900695801,49.90686019921875C40.85957900695801,49.90686019921875,12.695589006958008,49.90686019921875,12.695589006958008,49.90686019921875C12.429873006958008,49.90686019921875,12.252779006958065,49.72973619921875,12.252779006958065,49.46405019921875C12.252779006958065,49.19830319921875,12.429873006958008,49.02117919921875,12.695589006958008,49.02117919921875C12.695589006958008,49.02117919921875,41.03667900695801,49.02117919921875,41.03667900695801,49.02117919921875C41.12517900695801,49.02117919921875,41.213779006958006,49.06549069921875,41.302379006958006,49.10980219921875C41.34667900695801,49.15405319921875,42.143779006958006,49.77404819921875,42.27657900695801,50.83678919921875C42.36517900695801,51.63390919921875,42.05517900695801,52.431089199218746,41.34667900695801,53.27239919921875C41.302379006958006,53.31664919921875,41.16947900695801,53.36095919921875,41.03667900695801,53.36095919921875C41.03667900695801,53.36095919921875,41.03667900695801,53.36095919921875,41.03667900695801,53.36095919921875Z" fill="#274697" fill-opacity="1"/></g></g></svg>