<svg xmlns="http://www.w3.org/2000/svg" xmlns:xlink="http://www.w3.org/1999/xlink" fill="none" version="1.1" width="60.2587890625" height="52.909912109375" viewBox="0 0 60.2587890625 52.909912109375"><g style="mix-blend-mode:passthrough"><g><path d="M54.56943403320312,38.4025C54.56943403320312,38.4025,5.6418380332031255,38.4025,5.6418380332031255,38.4025C5.120323033203125,38.4025,4.693634033203125,37.9758,4.693634033203125,37.4542C4.693634033203125,37.4542,4.693634033203125,0.948204,4.693634033203125,0.948204C4.693634033203125,0.426697,5.120323033203125,0,5.6418380332031255,0C5.6418380332031255,0,54.616834033203126,0,54.616834033203126,0C55.13833403320312,0,55.565034033203126,0.426697,55.565034033203126,0.948204C55.565034033203126,0.948204,55.565034033203126,37.4542,55.565034033203126,37.4542C55.51763403320312,37.9758,55.090934033203126,38.4025,54.56943403320312,38.4025C54.56943403320312,38.4025,54.56943403320312,38.4025,54.56943403320312,38.4025ZM6.590054033203125,36.506C6.590054033203125,36.506,53.668634033203126,36.506,53.668634033203126,36.506C53.668634033203126,36.506,53.668634033203126,1.89642,53.668634033203126,1.89642C53.668634033203126,1.89642,6.590054033203125,1.89642,6.590054033203125,1.89642C6.590054033203125,1.89642,6.590054033203125,36.506,6.590054033203125,36.506C6.590054033203125,36.506,6.590054033203125,36.506,6.590054033203125,36.506Z" fill="#274697" fill-opacity="1"/></g><g><path d="M59.263,52.9100181640625C59.263,52.9100181640625,0.948209,52.9100181640625,0.948209,52.9100181640625C0.663747,52.9100181640625,0.379284,52.767818164062504,0.189642,52.5307181640625C1.85437e-7,52.2936181640625,-0.0474105,51.9618181640625,0.0474104,51.6773181640625C0.0474104,51.6773181640625,4.74104,37.1223751640625,4.74104,37.1223751640625C4.88328,36.7431031640625,5.21515,36.4586181640625,5.64184,36.4586181640625C5.64184,36.4586181640625,54.6168,36.4586181640625,54.6168,36.4586181640625C55.0435,36.4586181640625,55.3754,36.7431031640625,55.5176,37.1223751640625C55.5176,37.1223751640625,60.2113,51.6773181640625,60.2113,51.6773181640625C60.3061,51.9618181640625,60.2587,52.2936181640625,60.069,52.5307181640625C59.832,52.767818164062504,59.5475,52.9100181640625,59.263,52.9100181640625C59.263,52.9100181640625,59.263,52.9100181640625,59.263,52.9100181640625ZM2.22829,51.0135181640625C2.22829,51.0135181640625,57.9355,51.0135181640625,57.9355,51.0135181640625C57.9355,51.0135181640625,53.8582,38.3550381640625,53.8582,38.3550381640625C53.8582,38.3550381640625,6.30559,38.3550381640625,6.30559,38.3550381640625C6.30559,38.3550381640625,2.22829,51.0135181640625,2.22829,51.0135181640625C2.22829,51.0135181640625,2.22829,51.0135181640625,2.22829,51.0135181640625Z" fill="#274697" fill-opacity="1"/></g><g><path d="M34.84668684005737,47.26817883911133C34.84668684005737,47.26817883911133,25.364586840057374,47.26817883911133,25.364586840057374,47.26817883911133C25.080086840057373,47.26817883911133,24.890486840057374,47.07857883911133,24.890486840057374,46.79407883911133C24.890486840057374,46.50967883911133,25.080086840057373,46.31997883911133,25.364586840057374,46.31997883911133C25.364586840057374,46.31997883911133,34.84668684005737,46.31997883911133,34.84668684005737,46.31997883911133C35.131186840057374,46.31997883911133,35.32078684005737,46.50967883911133,35.32078684005737,46.79407883911133C35.32078684005737,47.03117883911133,35.131186840057374,47.26817883911133,34.84668684005737,47.26817883911133C34.84668684005737,47.26817883911133,34.84668684005737,47.26817883911133,34.84668684005737,47.26817883911133ZM34.08808684005737,37.92837883911133C33.99328684005737,37.92837883911133,33.89848684005737,37.88097883911133,33.803686840057374,37.83347883911133C33.803686840057374,37.83347883911133,5.357375840057373,17.54187083911133,5.357375840057373,17.54187083911133C5.1677399200573735,17.39962883911133,5.072914140057373,17.11520483911133,5.262557840057373,16.878143839111328C5.4047928400573735,16.641052839111328,5.689246840057373,16.59365903911133,5.926307840057373,16.783294839111328C5.926307840057373,16.783294839111328,34.37258684005737,37.02757883911133,34.37258684005737,37.02757883911133C34.56218684005737,37.16977883911133,34.65698684005737,37.454278839111325,34.46738684005737,37.69127883911133C34.419986840057376,37.83347883911133,34.277786840057374,37.92837883911133,34.08808684005737,37.92837883911133C34.08808684005737,37.92837883911133,34.08808684005737,37.92837883911133,34.08808684005737,37.92837883911133Z" fill="#274697" fill-opacity="1"/></g><g><path d="M20.38644377441406,28.114372778367997C20.24423177441406,28.114372778367997,20.14941377441406,28.066972778367997,20.05459577441406,27.972172778367995C19.864959674414063,27.782472778367996,19.864959674414063,27.498072778367995,20.05459577441406,27.308372778367996C20.05459577441406,27.308372778367996,31.290868774414065,16.024672778367997,31.290868774414065,16.024672778367997C31.290868774414065,16.024672778367997,24.321528774414062,1.137847778367996,24.321528774414062,1.137847778367996C24.226718774414064,0.9007947783679962,24.321528774414062,0.6163327783679962,24.558558774414063,0.5215072783679963C24.79565877441406,0.42668917836799625,25.080108774414064,0.5215072783679963,25.174928774414063,0.7585597783679963C25.174928774414063,0.7585597783679963,32.28646877441406,15.977272778367997,32.28646877441406,15.977272778367997C32.38126877441406,16.166972778368,32.333868774414064,16.356572778367998,32.19166877441406,16.498872778367996C32.19166877441406,16.498872778367996,20.71835277441406,27.972172778367995,20.71835277441406,27.972172778367995C20.623504774414062,28.066972778367997,20.48129277441406,28.114372778367997,20.38644377441406,28.114372778367997C20.38644377441406,28.114372778367997,20.38644377441406,28.114372778367997,20.38644377441406,28.114372778367997Z" fill="#274697" fill-opacity="1"/></g><g><path d="M31.859753736114502,16.59369677734375C31.859753736114502,16.59369677734375,31.717553736114503,16.59369677734375,31.717553736114503,16.59369677734375C31.717553736114503,16.59369677734375,5.499610736114502,8.81834677734375,5.499610736114502,8.81834677734375C5.262557736114502,8.72352677734375,5.120322936114502,8.48647677734375,5.167739616114502,8.24941677734375C5.262557736114502,8.01236677734375,5.499610736114502,7.87013677734375,5.736663736114502,7.91754677734375C5.736663736114502,7.91754677734375,32.002053736114505,15.69289677734375,32.002053736114505,15.69289677734375C32.2390537361145,15.78769677734375,32.381353736114505,16.02469677734375,32.3339537361145,16.26179677734375C32.2865537361145,16.45139677734375,32.0968537361145,16.59369677734375,31.859753736114502,16.59369677734375C31.859753736114502,16.59369677734375,31.859753736114502,16.59369677734375,31.859753736114502,16.59369677734375ZM54.5693537361145,25.17499677734375C54.5693537361145,25.17499677734375,54.4745537361145,25.17499677734375,54.4745537361145,25.17499677734375C54.4745537361145,25.17499677734375,27.924753736114504,20.43389677734375,27.924753736114504,20.43389677734375C27.687653736114502,20.38649677734375,27.498053736114503,20.14939677734375,27.545453736114503,19.86499677734375C27.592853736114503,19.62789677734375,27.8299537361145,19.43829677734375,28.114353736114502,19.48569677734375C28.114353736114502,19.48569677734375,54.6642537361145,24.22669677734375,54.6642537361145,24.22669677734375C54.901253736114505,24.27419677734375,55.0909537361145,24.51119677734375,55.0434537361145,24.79569677734375C54.996053736114504,25.03269677734375,54.8064537361145,25.17499677734375,54.569453736114504,25.17499677734375C54.569453736114504,25.17499677734375,54.5693537361145,25.17499677734375,54.5693537361145,25.17499677734375ZM43.190853736114505,6.82710677734375C42.9538537361145,6.82710677734375,42.7168537361145,6.63746677734375,42.7168537361145,6.40041677734375C42.7168537361145,6.40041677734375,42.4323537361145,0.94821177734375,42.4323537361145,0.94821177734375C42.4323537361145,0.66374977734375,42.6219537361145,0.47410587734375,42.859053736114504,0.42669677734375C43.0960537361145,0.42669677734375,43.333153736114504,0.61634077734375,43.3805537361145,0.85339377734375C43.3805537361145,0.85339377734375,43.664953736114505,6.25818677734375,43.664953736114505,6.25818677734375C43.712453736114504,6.54263677734375,43.4753537361145,6.77969677734375,43.190853736114505,6.82710677734375C43.238353736114504,6.82710677734375,43.190853736114505,6.82710677734375,43.190853736114505,6.82710677734375C43.190853736114505,6.82710677734375,43.190853736114505,6.82710677734375,43.190853736114505,6.82710677734375Z" fill="#274697" fill-opacity="1"/></g><g><path d="M44.13909956640625,23.32593C43.90203856640625,23.32593,43.66497756640625,23.13632,43.66497756640625,22.899259999999998C43.66497756640625,22.899259999999998,43.28570556640625,15.740295,43.28570556640625,15.740295C43.28570556640625,15.45578,43.47534156640625,15.2661743,43.71240256640625,15.21875C43.94946256640625,15.21875,44.18646256640625,15.408417,44.23388656640625,15.645447C44.23388656640625,15.645447,44.61321556640625,22.80441,44.61321556640625,22.80441C44.61321556640625,23.0889,44.42352556640625,23.27853,44.13909956640625,23.32593C44.13909956640625,23.32593,44.13909956640625,23.32593,44.13909956640625,23.32593Z" fill="#274697" fill-opacity="1"/></g><g><path d="M39.44555755834961,18.44270588378906C39.35076955834961,18.44270588378906,39.25586055834961,18.39520588378906,39.16101155834961,18.347805883789064C39.01886065834961,18.20560588378906,38.92401205834961,18.016005883789063,39.01886065834961,17.82630588378906C39.01886065834961,17.82630588378906,42.76421855834961,6.732284883789062,42.76421855834961,6.732284883789062C42.81170855834961,6.542632883789063,43.00134855834961,6.4004058837890625,43.19097855834961,6.4004058837890625C43.38061855834961,6.4004058837890625,43.57024855834961,6.495223983789063,43.66509855834961,6.684875883789062C43.66509855834961,6.684875883789062,48.31127855834961,17.44700588378906,48.31127855834961,17.44700588378906C48.40612855834961,17.636705883789062,48.35870855834961,17.873705883789064,48.16900855834961,17.968505883789064C48.02685855834961,18.110805883789062,47.78979855834961,18.110805883789062,47.60009855834961,18.016005883789063C47.60009855834961,18.016005883789063,43.57024855834961,15.740265883789062,43.57024855834961,15.740265883789062C43.57024855834961,15.740265883789062,39.73004255834961,18.30040588378906,39.73004255834961,18.30040588378906C39.63513255834961,18.44270588378906,39.54034555834961,18.44270588378906,39.44555755834961,18.44270588378906C39.44555755834961,18.44270588378906,39.44555755834961,18.44270588378906,39.44555755834961,18.44270588378906ZM43.23840855834961,8.201995883789063C43.23840855834961,8.201995883789063,40.34631855834961,16.830705883789065,40.34631855834961,16.830705883789065C40.34631855834961,16.830705883789065,43.28576855834961,14.886875883789063,43.28576855834961,14.886875883789063C43.42803855834961,14.792055883789063,43.61767855834961,14.792055883789063,43.75988855834961,14.886875883789063C43.75988855834961,14.886875883789063,46.84155855834961,16.593705883789063,46.84155855834961,16.593705883789063C46.84155855834961,16.593705883789063,43.23840855834961,8.201995883789063,43.23840855834961,8.201995883789063C43.23840855834961,8.201995883789063,43.23840855834961,8.201995883789063,43.23840855834961,8.201995883789063Z" fill="#274697" fill-opacity="1"/></g></g></svg>