<svg xmlns="http://www.w3.org/2000/svg" xmlns:xlink="http://www.w3.org/1999/xlink" fill="none" version="1.1" width="43.5068359375" height="56.2392578125" viewBox="0 0 43.5068359375 56.2392578125"><g style="mix-blend-mode:passthrough"><g style="mix-blend-mode:passthrough"><g><path d="M42.600181005859376,56.2392294921875C42.600181005859376,56.2392294921875,7.483811005859375,56.2392294921875,7.483811005859375,56.2392294921875C3.365491005859375,56.2392294921875,0.04428100585938921,52.9179294921875,0.04428100585938921,48.7996794921875C0.04428100585938921,44.6813994921875,3.365491005859375,41.3602294921875,7.483811005859375,41.3602294921875C7.483811005859375,41.3602294921875,42.600181005859376,41.3602294921875,42.600181005859376,41.3602294921875C42.95448100585938,41.3602294921875,43.220181005859374,41.5373534921875,43.39728100585938,41.8472904921875C43.57438100585937,42.1573484921875,43.53008100585937,42.5115994921875,43.30868100585938,42.7772194921875C40.69598100585937,46.4084494921875,40.69598100585937,51.2353494921875,43.30868100585938,54.866529492187496C43.485881005859376,55.1322294921875,43.53008100585937,55.4864294921875,43.39728100585938,55.7964294921875C43.26438100585938,56.1064294921875,42.91018100585938,56.2392294921875,42.600181005859376,56.2392294921875C42.600181005859376,56.2392294921875,42.600181005859376,56.2392294921875,42.600181005859376,56.2392294921875ZM7.483811005859375,43.0872794921875C4.339721005859375,43.0872794921875,1.815581005859375,45.655639492187504,1.815581005859375,48.7553694921875C1.815581005859375,51.8552294921875,4.384001005859375,54.4237294921875,7.483811005859375,54.4237294921875C7.483811005859375,54.4237294921875,41.005981005859375,54.4237294921875,41.005981005859375,54.4237294921875C39.10178100585937,50.8810994921875,39.10178100585937,46.6298794921875,41.005981005859375,43.0429694921875C41.005981005859375,43.0429694921875,7.483811005859375,43.0429694921875,7.483811005859375,43.0429694921875C7.483811005859375,43.0429694921875,7.483811005859375,43.0872794921875,7.483811005859375,43.0872794921875C7.483811005859375,43.0872794921875,7.483811005859375,43.0872794921875,7.483811005859375,43.0872794921875Z" fill="#274697" fill-opacity="1"/></g><g><path d="M0.885658,49.6854C0.398537,49.6854,0,49.2869,0,48.7998C0,48.7998,0,7.5281,0,7.5281C0,3.3655,3.36549,0,7.5281,0C7.5281,0,42.5559,0,42.5559,0C43.043,0,43.4415,0.398546,43.4415,0.885658C43.4415,0.885658,43.4415,42.2016,43.4415,42.2016C43.4415,42.6887,43.043,43.0873,42.5559,43.0873C42.5559,43.0873,7.48381,43.0873,7.48381,43.0873C4.33971,43.0873,1.8156,45.6557,1.8156,48.7555C1.77132,49.2869,1.41704,49.6854,0.885658,49.6854C0.885658,49.6854,0.885658,49.6854,0.885658,49.6854ZM7.5281,1.77132C4.33971,1.77132,1.77132,4.33973,1.77132,7.5281C1.77132,7.5281,1.77132,43.9729,1.77132,43.9729C3.14408,42.3788,5.18109,41.3602,7.43953,41.3602C7.43953,41.3602,41.6702,41.3602,41.6702,41.3602C41.6702,41.3602,41.6702,1.77132,41.6702,1.77132C41.6702,1.77132,7.5281,1.77132,7.5281,1.77132C7.5281,1.77132,7.5281,1.77132,7.5281,1.77132Z" fill="#274697" fill-opacity="1"/></g><g><path d="M7.2623898193359375,42.55592913208008C6.996688819335938,42.55592913208008,6.8195648193359375,42.378729132080075,6.8195648193359375,42.11302913208008C6.8195648193359375,42.11302913208008,6.8195648193359375,0.885658132080078,6.8195648193359375,0.885658132080078C6.8195648193359375,0.6199601320800782,6.996688819335938,0.4428291320800781,7.2623898193359375,0.4428291320800781C7.528075819335937,0.4428291320800781,7.705230819335937,0.6199601320800782,7.705230819335937,0.885658132080078C7.705230819335937,0.885658132080078,7.705230819335937,42.11302913208008,7.705230819335937,42.11302913208008C7.705230819335937,42.334429132080075,7.528075819335937,42.55592913208008,7.2623898193359375,42.55592913208008C7.2623898193359375,42.55592913208008,7.2623898193359375,42.55592913208008,7.2623898193359375,42.55592913208008Z" fill="#274697" fill-opacity="1"/></g><g><path d="M40.56313959960937,51.54534873046875C40.56313959960937,51.54534873046875,10.672149599609375,51.54534873046875,10.672149599609375,51.54534873046875C10.406463599609374,51.54534873046875,10.229339599609375,51.36816873046875,10.229339599609375,51.10250873046875C10.229339599609375,50.83678873046875,10.406463599609374,50.65969873046875,10.672149599609375,50.65969873046875C10.672149599609375,50.65969873046875,40.56313959960937,50.65969873046875,40.56313959960937,50.65969873046875C40.828839599609374,50.65969873046875,41.00593959960938,50.83678873046875,41.00593959960938,51.10250873046875C41.00593959960938,51.36816873046875,40.784539599609374,51.54534873046875,40.56313959960937,51.54534873046875C40.56313959960937,51.54534873046875,40.56313959960937,51.54534873046875,40.56313959960937,51.54534873046875ZM40.56313959960937,46.89559973046875C40.56313959960937,46.89559973046875,19.307309599609376,46.89559973046875,19.307309599609376,46.89559973046875C19.041659599609375,46.89559973046875,18.864469599609375,46.71847573046875,18.864469599609375,46.45281973046875C18.864469599609375,46.18713373046875,19.041659599609375,46.00994873046875,19.307309599609376,46.00994873046875C19.307309599609376,46.00994873046875,40.56313959960937,46.00994873046875,40.56313959960937,46.00994873046875C40.828839599609374,46.00994873046875,41.00593959960938,46.18713373046875,41.00593959960938,46.45281973046875C41.00593959960938,46.71847573046875,40.784539599609374,46.89559973046875,40.56313959960937,46.89559973046875C40.56313959960937,46.89559973046875,40.56313959960937,46.89559973046875,40.56313959960937,46.89559973046875Z" fill="#274697" fill-opacity="1"/></g></g><g><path d="M34.22043051757812,11.812905258789062C31.761730517578126,9.354175258789063,28.493130517578123,8.000015258789062,25.016330517578126,8.000015258789062C21.539570517578127,8.000015258789062,18.270620517578124,9.354175258789063,15.812300517578125,11.812905258789062C13.353980517578124,14.271255258789061,12.000030517578125,17.539975258789063,12.000030517578125,21.016715258789063C12.000030517578125,24.493515258789063,13.353980517578124,27.762115258789063,15.812300517578125,30.220415258789064C18.270620517578124,32.67871525878906,21.539570517578127,34.033515258789066,25.016330517578126,34.033515258789066C28.493230517578127,34.033515258789066,31.761730517578126,32.67871525878906,34.22043051757812,30.220415258789064C36.67883051757812,27.762115258789063,38.03273051757812,24.493515258789063,38.03273051757812,21.016715258789063C38.03273051757812,17.539975258789063,36.67883051757812,14.271255258789061,34.22043051757812,11.812905258789062C34.22043051757812,11.812905258789062,34.22043051757812,11.812905258789062,34.22043051757812,11.812905258789062ZM33.59213051757813,29.59201525878906C31.406330517578127,31.777415258789063,28.533130517578126,33.02331525878906,25.460730517578124,33.13351525878906C25.460730517578124,33.13351525878906,25.460730517578124,31.23671525878906,25.460730517578124,31.23671525878906C25.460730517578124,30.99151525878906,25.262030517578125,30.792815258789062,25.016330517578126,30.792815258789062C24.770730517578123,30.792815258789062,24.572030517578124,30.99151525878906,24.572030517578124,31.23671525878906C24.572030517578124,31.23671525878906,24.572030517578124,33.13351525878906,24.572030517578124,33.13351525878906C21.499210517578128,33.02331525878906,18.626490517578127,31.777415258789063,16.440680517578123,29.59201525878906C14.286120517578125,27.437515258789062,13.042850517578126,24.614215258789063,12.902687517578125,21.59091525878906C12.902687517578125,21.59091525878906,14.796000517578126,21.59091525878906,14.796000517578126,21.59091525878906C15.041620517578124,21.59091525878906,15.240370517578125,21.391915258789062,15.240370517578125,21.146515258789062C15.240370517578125,20.90131525878906,15.041590517578125,20.70221525878906,14.796000517578126,20.70221525878906C14.796000517578126,20.70221525878906,12.896179517578124,20.70221525878906,12.896179517578124,20.70221525878906C12.975593517578124,17.580995258789063,14.224920517578125,14.657485258789062,16.440680517578123,12.441305258789063C18.626490517578127,10.255725258789063,21.499210517578128,9.009845258789063,24.572030517578124,8.899597258789063C24.572030517578124,8.899597258789063,24.572030517578124,10.796205258789062,24.572030517578124,10.796205258789062C24.572030517578124,11.041595258789062,24.770830517578126,11.240545258789062,25.016330517578126,11.240545258789062C25.262030517578125,11.240545258789062,25.460730517578124,11.041595258789062,25.460730517578124,10.796205258789062C25.460730517578124,10.796205258789062,25.460730517578124,8.899597258789063,25.460730517578124,8.899597258789063C28.533130517578126,9.009845258789063,31.406330517578127,10.255725258789063,33.59213051757813,12.441285258789062C35.807830517578125,14.657465258789063,37.05723051757813,17.580995258789063,37.136630517578126,20.702115258789064C37.136630517578126,20.702115258789064,35.236730517578124,20.702115258789064,35.236730517578124,20.702115258789064C34.99113051757813,20.702115258789064,34.792430517578126,20.90131525878906,34.792430517578126,21.146515258789062C34.792430517578126,21.391915258789062,34.99113051757813,21.59091525878906,35.236730517578124,21.59091525878906C35.236730517578124,21.59091525878906,37.12963051757812,21.59091525878906,37.12963051757812,21.59091525878906C36.989930517578124,24.614215258789063,35.746630517578126,27.437515258789062,33.59213051757813,29.59201525878906C33.59213051757813,29.59201525878906,33.59213051757813,29.59201525878906,33.59213051757813,29.59201525878906ZM29.309830517578124,14.938005258789062C29.309830517578124,14.938005258789062,22.403630517578126,17.84568525878906,22.403630517578126,17.84568525878906C22.149730517578124,17.95286525878906,21.947060517578123,18.16111525878906,21.847250517578125,18.418315258789065C21.847250517578125,18.418315258789065,19.302980517578124,24.960515258789062,19.302980517578124,24.960515258789062C19.178440517578125,25.280715258789062,19.217500517578124,25.625315258789062,19.410150517578124,25.90741525878906C19.602810517578124,26.188615258789063,19.918310517578124,26.356915258789062,20.254170517578125,26.356915258789062C20.381320517578125,26.356915258789062,20.507190517578124,26.332615258789062,20.628250517578124,26.28581525878906C20.628250517578124,26.28581525878906,27.170930517578125,23.741515258789065,27.170930517578125,23.741515258789065C27.426930517578125,23.64121525878906,27.635630517578125,23.439015258789063,27.743330517578123,23.18481525878906C27.743330517578123,23.18481525878906,30.650730517578126,16.279105258789063,30.650730517578126,16.279105258789063C30.786130517578126,15.957335258789062,30.754030517578126,15.606915258789062,30.562230517578126,15.318115258789064C30.293630517578126,14.912825258789063,29.760330517578126,14.748585258789063,29.309830517578124,14.938005258789062C29.309830517578124,14.938005258789062,29.309830517578124,14.938005258789062,29.309830517578124,14.938005258789062ZM20.306270517578128,25.457315258789063C20.288050517578124,25.464715258789063,20.271110517578123,25.468215258789062,20.254200517578127,25.468215258789062C20.204290517578123,25.468215258789062,20.164370517578124,25.435615258789063,20.143550517578127,25.405315258789063C20.105350517578124,25.349315258789062,20.124880517578127,25.299015258789062,20.130940517578125,25.28251525878906C20.130940517578125,25.28251525878906,22.517230517578128,19.146015258789063,22.517230517578128,19.146015258789063C22.517230517578128,19.146015258789063,26.442730517578127,23.071115258789064,26.442730517578127,23.071115258789064C26.442730517578127,23.071115258789064,20.306270517578128,25.457315258789063,20.306270517578128,25.457315258789063C20.306270517578128,25.457315258789063,20.306270517578128,25.457315258789063,20.306270517578128,25.457315258789063ZM29.831530517578123,15.934125258789063C29.831530517578123,15.934125258789063,27.085030517578126,22.457015258789063,27.085030517578126,22.457015258789063C27.085030517578126,22.457015258789063,23.131330517578125,18.503515258789065,23.131330517578125,18.503515258789065C23.131330517578125,18.503515258789065,29.654830517578127,15.757075258789062,29.654830517578127,15.757075258789062C29.674330517578124,15.748845258789062,29.692630517578124,15.744925258789063,29.709930517578126,15.744925258789063C29.760730517578125,15.744925258789063,29.801030517578123,15.778115258789063,29.821930517578124,15.809835258789063C29.860130517578124,15.867075258789063,29.838430517578125,15.917215258789064,29.831530517578123,15.934125258789063C29.831530517578123,15.934125258789063,29.831530517578123,15.934125258789063,29.831530517578123,15.934125258789063Z" fill="#274697" fill-opacity="1"/></g></g></svg>